<svg xmlns="http://www.w3.org/2000/svg" viewBox="1412 13620 1192.816 1680">
  <path fill="#84bd00" d="M2200.074 13620h-383.332c-34.783 0-62.98 28.197-62.98 62.979v391.398a.477.477 0 0 1-.476.477.642.642 0 0 0-.614.456l-338.004 1123.868a62.978 62.978 0 0 0-2.668 18.138v36.709c0 25.391 20.583 45.975 45.975 45.975H2558.84c25.391 0 45.975-20.584 45.975-45.975v-36.709c0-6.144-.9-12.254-2.669-18.138l-338.003-1123.868a.642.642 0 0 0-.614-.456.477.477 0 0 1-.477-.477v-391.398c0-34.782-28.197-62.979-62.98-62.979Zm-277.507 1298h-47.787c.1 92.629.93 185.22 2.491 277.205h-104.465a17456.808 17456.808 0 0 0 2.49-277.205h-141.465c2.587-35.227 21.18-69.876 55.782-96.79 63.382-49.299 160.136-56.82 233.702-22.565.154-35.181.25-70.375.288-105.571H1667.35c4.685-63.811 38.366-126.576 101.044-175.327 135.482-105.378 355.14-105.378 490.621 0 62.678 48.751 96.36 111.516 101.044 175.327H2103.81c.083 77.756.451 155.496 1.103 233.12a127.447 127.447 0 0 1 11.445-10.03c55.804-43.405 146.28-43.405 202.084 0 25.817 20.08 39.69 45.932 41.62 72.216h-105.55c.075 69.111.694 138.193 1.859 206.825h-77.943a13025.864 13025.864 0 0 0 1.859-206.825h-74.79c.716 69.08 1.658 138.046 2.825 206.825h-189.23a31415.929 31415.929 0 0 0 3.476-277.205Z"/>
</svg>