<svg xmlns="http://www.w3.org/2000/svg" xmlns:xlink="http://www.w3.org/1999/xlink" xml:space="preserve" viewBox="0 0 957.47 372.27">
  <defs>
    <path id="a" d="m598.67 324.74 57.5 15.41c1.1.29 1.75 1.43 1.46 2.52l-2.25 8.4a2.064 2.064 0 0 1-2.52 1.46l-57.49-15.41a2.064 2.064 0 0 1-1.46-2.52l2.25-8.4c.28-1.1 1.41-1.76 2.51-1.46z" class="st13"/>
    <path id="b" d="m674.93 324.74 57.5 15.41c1.1.29 1.75 1.43 1.46 2.52l-2.25 8.4a2.064 2.064 0 0 1-2.52 1.46l-57.5-15.41a2.064 2.064 0 0 1-1.46-2.52l2.25-8.4c.29-1.1 1.42-1.76 2.52-1.46z" class="st13"/>
  </defs>
  <path fill="#676767" stroke="#ebebeb" stroke-miterlimit="10" stroke-width="3" d="M23.51 368.69v-15.88c0-1.15.93-2.07 2.07-2.07h5.81c1.15 0 2.07.93 2.07 2.07v15.88c0 1.15.93 2.07 2.07 2.07h16.43c1.15 0 2.07-.93 2.07-2.07v-20.9c0-.55-.22-1.08-.61-1.47l-23.48-23.48a2.07 2.07 0 0 0-2.93 0L3.55 346.32c-.39.39-.61.92-.61 1.47v20.9c0 1.15.93 2.07 2.07 2.07h16.43c1.14.01 2.07-.92 2.07-2.07zm73.23-48.49H85.8c-1.11 0-2.02.9-2.02 2.02v11.34c0 .01-.01.01-.01.01-.01 0-.02.01-.02.01l-9.93 33.02a1.9 1.9 0 0 0-.09.58v1.06c0 .75.61 1.35 1.35 1.35h32.36c.75 0 1.35-.61 1.35-1.35v-1.06c0-.2-.03-.39-.09-.58l-9.93-33.02c0-.01-.01-.01-.02-.01s-.01-.01-.01-.01v-11.34c.02-1.12-.89-2.02-2-2.02zm33.81 1.51h31.57c1.13 0 2.05.92 2.05 2.05v38.15c-10.7-5.02-24.97 15.07-35.67 5.02v-43.17c0-1.13.92-2.05 2.05-2.05zm122.49 24.87v8.13h23.19v-16.27c0-3.45-2.33-6.37-5.5-7.25a7.678 7.678 0 1 0-12.2 0c-3.17.89-5.5 3.8-5.5 7.25v1.35l.01 6.79z"/>
  <path fill="#676767" stroke="#c2c1c1" stroke-miterlimit="10" stroke-width="3" d="M235.23 358.92v10.18h29.02v-20.35c0-4.32-2.91-7.97-6.88-9.07a9.604 9.604 0 0 0-.84-12.63 9.603 9.603 0 0 0-13.58 0 9.604 9.604 0 0 0-.84 12.63c-3.97 1.11-6.88 4.75-6.88 9.07v10.17zm162.11-30.47c-2.66.75-5.17 2.15-7.28 4.21l-3.84-2.21a1.32 1.32 0 0 0-1.81.49l-3.33 5.76c-.37.63-.15 1.44.49 1.81l3.83 2.21c-.7 2.76-.7 5.65 0 8.41l-3.83 2.21c-.63.37-.85 1.18-.49 1.81l3.33 5.76c.37.63 1.18.85 1.81.49l3.84-2.21c2.11 2.06 4.63 3.46 7.28 4.21v4.43c0 .73.59 1.33 1.33 1.33h6.65c.73 0 1.33-.59 1.33-1.33v-4.43c2.66-.75 5.17-2.15 7.28-4.21l3.84 2.21c.63.37 1.44.15 1.81-.49l3.33-5.76c.37-.63.15-1.44-.49-1.81l-3.83-2.21c.7-2.76.7-5.65 0-8.41l3.83-2.21c.63-.37.85-1.18.49-1.81l-3.33-5.76c-.37-.63-1.18-.85-1.81-.49l-3.84 2.21a17.045 17.045 0 0 0-7.28-4.21v-4.43c0-.73-.59-1.33-1.33-1.33h-6.65c-.73 0-1.33.59-1.33 1.33v4.43zm10.17 10.95a7.804 7.804 0 0 1 0 11.04c-3.05 3.05-7.99 3.05-11.04 0s-3.05-7.99 0-11.04a7.804 7.804 0 0 1 11.04 0"/>
  <path fill="none" stroke="#c2c1c0" stroke-linecap="round" stroke-linejoin="round" stroke-width="4" d="M347.75 346.1h12.97v14.51m-52.39-14.72h-12.39v-14.51"/>
  <path fill="#676767" stroke="#c2c1c1" stroke-miterlimit="10" stroke-width="4" d="m330.77 322.88 18.71 20.37a3.319 3.319 0 0 1 0 4.48l-18.71 20.37a3.308 3.308 0 0 1-4.88 0l-18.71-20.37a3.319 3.319 0 0 1 0-4.48l18.71-20.37a3.308 3.308 0 0 1 4.68-.2c.07.07.14.13.2.2zm-146.9 34.48v11.11h31.67v-22.21c0-4.72-3.18-8.69-7.51-9.9 3.15-4.11 2.85-10.02-.92-13.78-4.09-4.09-10.73-4.09-14.82 0-3.76 3.76-4.07 9.67-.92 13.78-4.33 1.21-7.51 5.19-7.51 9.9v11.1z"/>
  <path d="M23.51 298.73v-15.88c0-1.15.93-2.07 2.07-2.07h5.81c1.15 0 2.07.93 2.07 2.07v15.88c0 1.15.93 2.07 2.07 2.07h16.43c1.15 0 2.07-.93 2.07-2.07v-20.9c0-.55-.22-1.08-.61-1.47l-23.48-23.48a2.07 2.07 0 0 0-2.93 0L3.55 276.36c-.39.39-.61.92-.61 1.47v20.9c0 1.15.93 2.07 2.07 2.07h16.43c1.14 0 2.07-.93 2.07-2.07zm73.23-48.5H85.8c-1.11 0-2.02.9-2.02 2.02v11.34c0 .01-.01.01-.01.01-.01 0-.02.01-.02.01l-9.93 33.02a1.9 1.9 0 0 0-.09.58v1.06c0 .75.61 1.35 1.35 1.35h32.36c.75 0 1.35-.61 1.35-1.35v-1.06c0-.2-.03-.39-.09-.58l-9.93-33.02c0-.01-.01-.01-.02-.01s-.01-.01-.01-.01v-11.34c.02-1.12-.89-2.02-2-2.02zm33.81 1.52h31.57c1.13 0 2.05.92 2.05 2.05v38.15c-10.7-5.02-24.97 15.07-35.67 5.02V253.8c0-1.13.92-2.05 2.05-2.05zm122.49 24.87v8.13h23.19v-16.27c0-3.45-2.33-6.37-5.5-7.25a7.678 7.678 0 1 0-12.2 0c-3.17.89-5.5 3.8-5.5 7.25v1.35l.01 6.79z" class="st4"/>
  <path d="M235.23 288.96v10.18h29.02v-20.35c0-4.32-2.91-7.97-6.88-9.07a9.604 9.604 0 0 0-.84-12.63 9.603 9.603 0 0 0-13.58 0 9.604 9.604 0 0 0-.84 12.63c-3.97 1.11-6.88 4.75-6.88 9.07v10.17zm162.11-30.48c-2.66.75-5.17 2.15-7.28 4.21l-3.84-2.21a1.32 1.32 0 0 0-1.81.49l-3.33 5.76c-.37.63-.15 1.44.49 1.81l3.83 2.21c-.7 2.76-.7 5.65 0 8.41l-3.83 2.21c-.63.37-.85 1.18-.49 1.81l3.33 5.76c.37.63 1.18.85 1.81.49l3.84-2.21c2.11 2.06 4.63 3.46 7.28 4.21v4.43c0 .73.59 1.33 1.33 1.33h6.65c.73 0 1.33-.59 1.33-1.33v-4.43c2.66-.75 5.17-2.15 7.28-4.21l3.84 2.21c.63.37 1.44.15 1.81-.49l3.33-5.76c.37-.63.15-1.44-.49-1.81l-3.83-2.21c.7-2.76.7-5.65 0-8.41l3.83-2.21c.63-.37.85-1.18.49-1.81l-3.33-5.76c-.37-.63-1.18-.85-1.81-.49l-3.84 2.21a17.045 17.045 0 0 0-7.28-4.21v-4.43c0-.73-.59-1.33-1.33-1.33h-6.65c-.73 0-1.33.59-1.33 1.33v4.43zm10.17 10.96a7.804 7.804 0 0 1 0 11.04 7.804 7.804 0 0 1-11.04 0 7.804 7.804 0 0 1 0-11.04 7.804 7.804 0 0 1 11.04 0" class="st4"/>
  <path fill="none" stroke="#ebebeb" stroke-linecap="round" stroke-linejoin="round" stroke-width="5" d="M347.75 276.14h12.97v14.51m-52.39-14.73h-12.39v-14.51"/>
  <path d="m330.77 252.92 18.71 20.37a3.319 3.319 0 0 1 0 4.48l-18.71 20.37a3.308 3.308 0 0 1-4.88 0l-18.71-20.37a3.319 3.319 0 0 1 0-4.48l18.71-20.37a3.308 3.308 0 0 1 4.88 0zm-146.9 35.98v11.11h31.67V277.8c0-4.72-3.18-8.69-7.51-9.9 3.15-4.11 2.85-10.02-.92-13.78-4.09-4.09-10.73-4.09-14.82 0-3.76 3.76-4.07 9.67-.92 13.78-4.33 1.21-7.51 5.19-7.51 9.9v11.1z" class="st4"/>
  <path d="M106.18 13.88c.73 0 1.32.59 1.32 1.32v14.58c0 .73-.59 1.32-1.32 1.32s-1.32-.59-1.32-1.32V15.21a1.32 1.32 0 0 1 1.32-1.33z" class="st6"/>
  <path d="M115.11 22.5c0 .7-.57 1.28-1.28 1.28H98.52c-.7 0-1.28-.57-1.28-1.28s.57-1.28 1.28-1.28h15.31c.71 0 1.28.57 1.28 1.28z" class="st6"/>
  <path fill="#ccc" d="M69.43 17 54.86 31.57l-3.7-3.7L65.73 13.3l3.7 3.7z"/>
  <path fill="#989898" d="m71.39 15.04-1.21 1.21c-.26.26-.68.26-.94 0l-2.76-2.76a.664.664 0 0 1 0-.94l1.21-1.21c.26-.26.68-.26.94 0l2.76 2.76c.26.26.26.68 0 .94z"/>
  <path d="m54.24 31.88-3.58.37a.167.167 0 0 1-.18-.15v-.03l.37-3.58c.01-.09.09-.16.18-.15.04 0 .07.02.1.05l3.21 3.21c.06.06.06.17 0 .23-.03.03-.06.05-.1.05z" class="st9"/>
  <path d="M229.74 30.18h31.1a2.21 2.21 0 0 1 0 4.42h-31.1a2.21 2.21 0 0 1 0-4.42zm0-9.89h31.1a2.21 2.21 0 0 1 0 4.42h-31.1a2.21 2.21 0 0 1 0-4.42zm0-9.9h31.1a2.21 2.21 0 0 1 0 4.42h-31.1a2.21 2.21 0 0 1 0-4.42z" class="st6"/>
  <path fill="none" stroke="#c2c1c1" stroke-linecap="round" stroke-linejoin="round" stroke-width="3" d="M183.45 4.81h11.31c1.39 0 2.51 1.13 2.51 2.51v10.49c0 1.39-1.13 2.51-2.51 2.51h-11.31c-1.39 0-2.51-1.13-2.51-2.51V7.33a2.507 2.507 0 0 1 2.51-2.52h0zm20.88 0h11.31c1.39 0 2.51 1.13 2.51 2.51v10.49c0 1.39-1.13 2.51-2.51 2.51h-11.31c-1.39 0-2.51-1.13-2.51-2.51V7.33c0-1.39 1.12-2.52 2.51-2.52zm-20.88 19.85h11.31c1.39 0 2.51 1.13 2.51 2.51v10.49c0 1.39-1.13 2.51-2.51 2.51h-11.31c-1.39 0-2.51-1.13-2.51-2.51V27.17c-.01-1.38 1.12-2.51 2.51-2.51h0zm20.88 0h11.31c1.39 0 2.51 1.13 2.51 2.51v10.49c0 1.39-1.13 2.51-2.51 2.51h-11.31c-1.39 0-2.51-1.13-2.51-2.51V27.17c0-1.38 1.12-2.51 2.51-2.51z"/>
  <path d="M150.04 11.48h-10.58a5.63 5.63 0 0 0-5.63 5.63V34.6a5.63 5.63 0 0 0 5.63 5.63h26.47a5.63 5.63 0 0 0 5.63-5.63V17.11a5.63 5.63 0 0 0-5.63-5.63h-10.58v1.93H165c2.47 0 4.47 2 4.47 4.47v15.94c0 2.47-2 4.47-4.47 4.47h-24.62c-2.47 0-4.47-2-4.47-4.47V17.88c0-2.47 2-4.47 4.47-4.47h9.65l.01-1.93zm-3.98-2.59 6.42-3.98c.13-.08.3-.08.44 0l6.42 3.98c.19.12.25.38.13.57a.43.43 0 0 1-.35.2h-12.83c-.23 0-.41-.19-.41-.41-.01-.15.06-.28.18-.36z" class="st6"/>
  <path d="M152.23 6.97h.93c.37 0 .66.3.66.66V27c0 .37-.3.66-.66.66h-.93a.66.66 0 0 1-.66-.66V7.63c0-.37.3-.66.66-.66zM18.61 11.13c-3.8-.1-7.62 1.3-10.52 4.2-5.6 5.6-5.6 14.68 0 20.28s14.68 5.6 20.28 0a14.31 14.31 0 0 0 4.2-10.11h-2.12c-.01 3.12-1.2 6.23-3.58 8.61-4.77 4.77-12.52 4.77-17.29 0s-4.77-12.52 0-17.29c2.48-2.48 5.77-3.68 9.02-3.58v5.67c0 .23.19.41.41.41.14 0 .28-.07.35-.2l4.14-6.66c.08-.13.08-.3 0-.44l-4.14-6.66c-.1-.17-.36-.23-.55-.11a.43.43 0 0 0-.2.35v5.53z" class="st6"/>
  <path d="M134.32 182.39V229c11.34 10.65 26.45-10.64 37.79-5.32v-41.29c0-.71-.58-1.29-1.29-1.29h-35.21c-.72 0-1.29.58-1.29 1.29zm12.01 16.04a.952.952 0 0 1-.22-.45h-.32c-.3 0-.54-.24-.54-.54v-.88c0-.1.03-.21.09-.29l.97-1.5-.13-.08-.42.64c-.1.15-.27.24-.45.24h-1.94c-.1 0-.21-.03-.29-.09l-2.53-1.64a.534.534 0 0 1-.16-.74l.09-.14-1.99-1.29c-.12.12-.31.14-.45.05l-.82-.53c-.14-.09-.2-.27-.14-.43l-.08-.05a.358.358 0 0 1-.11-.49l.93-1.42c.11-.17.33-.21.49-.11l.08.05c.12-.13.31-.15.46-.06l.82.53c.15.1.2.28.13.44l1.99 1.29 1.13-1.75c.16-.25.49-.32.74-.16l3.9 2.53c.03.02.06.04.08.06l.49.32.35-.54v-.33c0-.1.08-.18.18-.18h.19v-1.38c0-.04.01-.07.03-.1h-1.18c-.2 0-.36-.16-.36-.36v-1.32c0-.2.16-.36.36-.36h3.64c.2 0 .36.16.36.36v1.32c0 .2-.16.36-.36.36h-.49c.02.03.03.07.03.1v1.38h.48c.08 0 .15.05.17.13 3.82.07 7.62 2.09 10.54 6.06 2.96 4.03 4.44 9.32 4.45 14.6v.04c0 1.25-.08 2.49-.25 3.72h-20.49c-.3 0-.54-.24-.54-.54v-.99c0-1.18.47-3.47 2.35-3.47l.46.01a.21.21 0 0 1-.04-.11v-.49c0-.1.08-.18.18-.18h3.34c.1 0 .18.08.18.18v.49c0 .02 0 .04-.01.06.08-.01.16-.03.23-.05v-1.6h-.75c-.2 0-.36-.16-.36-.36v-.65h-2.81a.18.18 0 0 1-.18-.18v-.49c0-.1.08-.18.18-.18h.46v-.32h-4.39a.18.18 0 0 1-.18-.18v-.59c0-.1.08-.18.18-.18h10.58c.1 0 .18.08.18.18v.59c0 .1-.08.18-.18.18h-1.45c.01.04.02.07.02.11v.74h2.56c.44-.82.69-1.75.69-2.75v-.96c0-2.67-1.81-4.92-4.26-5.59l-.56.49 2.7 1.2c.18.08.26.29.18.47l-.4.9c-.08.18-.29.26-.47.18l-1.66-.74 1.06 2.28c.08.18.01.39-.17.48l-.89.41c-.18.08-.39.01-.48-.17l-.84-1.81v2c0 .2-.16.36-.36.36h-.98c-.2 0-.36-.16-.36-.36v-2.89l-.28.24c-.15.13-.37.11-.5-.04l-.17-.2a.351.351 0 0 1 .04-.5l.03-.03c-.07-.05-.14-.11-.2-.17l-1.58-1.79zM3.41 182.39V229c11.34 10.65 26.45-10.64 37.79-5.32v-41.29c0-.71-.58-1.29-1.29-1.29H4.7c-.71 0-1.29.58-1.29 1.29zm261.81 0V229c11.34 10.65 26.45-10.64 37.79-5.32v-41.29c0-.71-.58-1.29-1.29-1.29h-35.21c-.71 0-1.29.58-1.29 1.29zm8.61 32.48c0-.11.02-.21.05-.31l5.83-19.4h.02v-6.76c0-.6.49-1.09 1.09-1.09h6.61c.6 0 1.09.49 1.09 1.09v6.76h.02l5.83 19.4c.03.1.05.21.05.31v.63c0 .44-.36.79-.79.79h-19c-.44 0-.79-.36-.79-.79v-.63zm-74.06-32.48V229c11.34 10.65 26.45-10.64 37.79-5.32v-41.29c0-.71-.58-1.29-1.29-1.29h-35.21c-.71 0-1.29.58-1.29 1.29zm24.55 13.06c-1.25-4.37-5.81-6.9-10.18-5.64-4.37 1.25-6.9 5.81-5.64 10.18 1.25 4.37 5.81 6.9 10.18 5.64 4.37-1.25 6.89-5.81 5.64-10.18m-4.52 12.78c-.12.04-.23.07-.35.11-5.86 1.68-11.97-1.71-13.65-7.57s1.71-11.97 7.57-13.65c5.86-1.68 11.97 1.71 13.65 7.57 1.16 4.05-.1 8.23-2.93 10.97l5.87 9.77c.47.78.22 1.8-.57 2.27l-1.45.87c-.78.47-1.8.22-2.27-.57l-5.87-9.77zm110.87-25.84V229c11.34 10.65 26.45-10.64 37.79-5.32v-41.29c0-.71-.58-1.29-1.29-1.29h-35.21c-.71 0-1.29.58-1.29 1.29zm6.88 7.75h-.27c-.14 0-.25-.11-.25-.25v-2.82c0-.14.11-.25.25-.25h24.57c.14 0 .25.11.25.25v2.82c0 .14-.11.25-.25.25h-.27v.76c0 .14-.11.25-.25.25H337.8c-.14 0-.25-.11-.25-.25v-.76zm0 8.25h-.27c-.14 0-.25-.11-.25-.25v-2.82c0-.14.11-.25.25-.25h24.57c.14 0 .25.11.25.25v2.82c0 .14-.11.25-.25.25h-.27v.76c0 .14-.11.25-.25.25H337.8c-.14 0-.25-.11-.25-.25v-.76zm0 8.24h-.27c-.14 0-.25-.11-.25-.25v-2.82c0-.14.11-.25.25-.25h24.57c.14 0 .25.11.25.25v2.82c0 .14-.11.25-.25.25h-.27v.76c0 .14-.11.25-.25.25H337.8c-.14 0-.25-.11-.25-.25v-.76zm0 8.25h-.27c-.14 0-.25-.11-.25-.25v-2.82c0-.14.11-.25.25-.25h24.57c.14 0 .25.11.25.25v2.82c0 .14-.11.25-.25.25h-.27v.76c0 .14-.11.25-.25.25H337.8c-.14 0-.25-.11-.25-.25v-.76zM68.87 182.39V229c11.34 10.65 26.45-10.64 37.79-5.32v-41.29c0-.71-.58-1.29-1.29-1.29H70.16c-.72 0-1.29.58-1.29 1.29zm27.52 12.02a7.593 7.593 0 0 1 0 10.73 7.593 7.593 0 0 1-10.73 0 7.593 7.593 0 0 1 0-10.73c2.96-2.97 7.76-2.97 10.73 0m2.95 2.15a9.045 9.045 0 0 0-1.96-2.96c-3.49-3.49-9.14-3.49-12.62 0a8.856 8.856 0 0 0-2.27 3.85v.01c-.77 2.94 0 6.21 2.31 8.51 1.73 1.73 4 2.6 6.27 2.6h.04c2.26-.01 4.51-.88 6.23-2.6 2.31-2.31 3.08-5.57 2.31-8.52-.09-.29-.19-.59-.31-.89zm-.4-4.11c.21-.15.46-.24.72-.24h.26c.78 0 1.4.63 1.4 1.4v13.55c0 .77-.63 1.4-1.4 1.4H75.6c-.78 0-1.4-.63-1.4-1.4v-13.55c0-.78.63-1.4 1.4-1.4h6.61c.36 0 .71.14.98.39l.39-1.65c.15-.65.61-1.1 1.14-1.1h12.75c.52 0 .98.45 1.14 1.1l.33 1.5zm558.99-10.06V229c11.34 10.65 26.45-10.64 37.79-5.32v-41.29c0-.71-.58-1.29-1.29-1.29h-35.21c-.71 0-1.29.58-1.29 1.29zm13.78 23.37c-.05 0-.09 0-.14-.01-.05.01-.09.01-.14.01-.6 0-1.08-.49-1.08-1.08v-2.49h-8.03c-.6 0-1.08-.49-1.08-1.08s.49-1.08 1.08-1.08h8.03v-7.66c0-.6.49-1.08 1.08-1.08h.1c.06-.01.12-.01.18-.01h8.23V189c0-.6.49-1.08 1.08-1.08h9.11c.6 0 1.08.49 1.08 1.08 0 .6-.49 1.08-1.08 1.08h-8.02v4.71h8.02c.6 0 1.08.49 1.08 1.08 0 .6-.49 1.08-1.08 1.08h-9.11c-.6 0-1.08-.49-1.08-1.08v-2.42h-7.43v10.16h7.39v-2.35c0-.6.49-1.08 1.08-1.08h9.14c.6 0 1.08.49 1.08 1.08s-.49 1.08-1.08 1.08h-8.06v4.69h8.06c.6 0 1.08.49 1.08 1.08 0 .6-.49 1.08-1.08 1.08h-8.06v4.69h8.06c.6 0 1.08.49 1.08 1.08 0 .6-.49 1.08-1.08 1.08h-9.11c-.49 0-.9-.33-1.04-.77a.984.984 0 0 1-.08-.42v-9.1h-8.18zm-144.68-23.37V229c11.34 10.65 26.45-10.64 37.79-5.32v-41.29c0-.71-.58-1.29-1.29-1.29h-35.21c-.71 0-1.29.58-1.29 1.29zm7.09 10.92h23.61c.34 0 .61.28.61.61v15.06c0 .34-.28.61-.61.61h-23.61c-.34 0-.61-.28-.61-.61v-15.06c0-.33.27-.61.61-.61zm4.81 2.1c-.75 0-1.35.61-1.35 1.35v9.38c0 .75.61 1.35 1.35 1.35h13.99c.75 0 1.35-.61 1.35-1.35v-9.38c0-.75-.61-1.35-1.35-1.35h-13.99zm7.57-7.66c2.25-.02 4.49-.19 6.55-.51 1.43.22 2.76.5 3.96.86.48.14.93.29 1.33.45v3.53c0 .19-.22.34-.49.34H546.5m0 0H534c-.27 0-.49-.15-.49-.34v-3.53c.41-.16.85-.31 1.33-.45 1.19-.36 2.53-.64 3.96-.86 2.06.31 4.3.48 6.55.51h1.15m-.59 28.8c-4.01 0-8.01-.49-11.07-1.46-.48-.15-.93-.31-1.33-.48v-3.46c0-.37.3-.66.66-.66h23.51c.37 0 .66.3.66.66v3.46c-.41.17-.85.33-1.33.48-3.06.97-7.06 1.45-11.07 1.46h-.03zm-4.37-1.15h8.77c.14 0 .28-.06.36-.16l2.48-3.03c.05-.06.08-.13.08-.2 0-.2-.19-.36-.44-.36h-13.74c-.09 0-.17.02-.25.06-.2.11-.25.34-.11.5l2.48 3.03c.09.1.23.16.37.16zm-2.39-19.16h13.55c.44 0 .8.36.8.8v8.83c0 .44-.36.8-.8.8h-13.55c-.44 0-.8-.36-.8-.8v-8.83c0-.44.36-.8.8-.8zm1.34 1.15a.712.712 0 0 0-1.01-.01c-.28.28-.29.73-.01 1.01l.01.01c.28.28.74.27 1.01-.01s.27-.72 0-1m2.38 0a.712.712 0 0 0-1.01 0c-.28.28-.28.73 0 1.01s.73.28 1.01 0 .28-.73 0-1.01m2.37 0a.712.712 0 0 0-1.01 0c-.28.28-.28.73 0 1.01s.73.28 1.01 0 .28-.73 0-1.01m2.38 0a.712.712 0 0 0-1.01 0c-.28.28-.28.73 0 1.01s.73.28 1.01 0 .28-.73 0-1.01m2.38 0a.712.712 0 0 0-1.01 0c-.28.28-.28.73 0 1.01s.73.28 1.01 0 .28-.73 0-1.01m2.37 0a.712.712 0 0 0-1.01 0c-.28.28-.28.73 0 1.01s.73.28 1.01 0 .28-.73 0-1.01m-11.88 2.37c-.28-.28-.73-.28-1.01 0s-.28.73 0 1.01.73.28 1.01 0c.28-.27.28-.73 0-1.01m2.38 0a.712.712 0 0 0-1.01 0c-.28.28-.28.73 0 1.01s.73.28 1.01 0c.28-.27.28-.73 0-1.01m2.37 0a.712.712 0 0 0-1.01 0c-.28.28-.28.73 0 1.01s.73.28 1.01 0c.28-.27.28-.73 0-1.01m2.38 0a.712.712 0 0 0-1.01 0c-.28.28-.28.73 0 1.01s.73.28 1.01 0c.28-.27.28-.73 0-1.01m2.38 0a.712.712 0 0 0-1.01 0c-.28.28-.28.73 0 1.01s.73.28 1.01 0c.28-.27.28-.73 0-1.01m2.37 0a.712.712 0 0 0-1.01-.01c-.28.28-.29.73-.01 1.01l.01.01c.28.28.74.27 1.01-.01a.7.7 0 0 0 0-1m-11.88 2.38a.712.712 0 0 0-1.01 0c-.28.28-.28.73 0 1.01s.73.28 1.01 0 .28-.73 0-1.01m2.38 0a.712.712 0 0 0-1.01 0c-.28.28-.28.73 0 1.01s.73.28 1.01 0 .28-.73 0-1.01m2.37 0a.712.712 0 0 0-1.01 0c-.28.28-.28.73 0 1.01s.73.28 1.01 0 .28-.73 0-1.01m2.38 0a.712.712 0 0 0-1.01 0c-.28.28-.28.73 0 1.01s.73.28 1.01 0 .28-.73 0-1.01m2.38 0a.712.712 0 0 0-1.01 0c-.28.28-.28.73 0 1.01s.73.28 1.01 0 .28-.73 0-1.01m2.37 0a.712.712 0 0 0-1.01-.01c-.28.28-.29.73-.01 1.01l.01.01c.28.28.74.27 1.01-.01a.7.7 0 0 0 0-1m-11.88 2.37a.712.712 0 0 0-1.01-.01c-.28.28-.29.73-.01 1.01l.01.01c.28.28.74.27 1.01-.01.27-.27.27-.72 0-1m2.38 0a.712.712 0 0 0-1.01 0c-.28.28-.28.73 0 1.01s.73.28 1.01 0c.28-.27.28-.73 0-1.01m2.37 0a.712.712 0 0 0-1.01 0c-.28.28-.28.73 0 1.01s.73.28 1.01 0c.28-.27.28-.73 0-1.01m2.38 0a.712.712 0 0 0-1.01-.01c-.28.28-.29.73-.01 1.01l.01.01c.28.28.74.27 1.01-.01.27-.27.27-.72 0-1m2.38 0a.712.712 0 0 0-1.01-.01c-.28.28-.29.73-.01 1.01l.01.01c.28.28.74.27 1.01-.01.27-.27.27-.72 0-1m2.37 0a.712.712 0 0 0-1.01-.01c-.28.28-.29.73-.01 1.01l.01.01c.28.28.74.27 1.01-.01a.7.7 0 0 0 0-1m40.11-22.12V229c11.34 10.65 26.45-10.64 37.79-5.32v-41.29c0-.71-.58-1.29-1.29-1.29h-35.21c-.71 0-1.29.58-1.29 1.29zm31.27 11.05c-.55-1.18-2.3-1.24-3-.19-.58.86-.68 2.49.03 3.5.63.93 2.79 1.21 3.11-.81.01-.04.01-.08.02-.12h1.55c-.02.24-.06.46-.11.67-.75 3.01-4.46 2.7-5.71 1.22-1.27-1.48-1.31-4.01.02-5.46 1.27-1.49 4.41-1.61 5.52.61.19.4.23.81.23.91h-1.55c-.04-.11-.07-.23-.11-.33zm-13.71 2.4h-1.61v-1.19h3.06v3.93h-1.02l-.16-.84c-.94 1.4-3.38 1.32-4.63-.07-1.26-1.48-1.33-3.93.05-5.47 1.21-1.32 3.68-1.53 4.99-.04.38.43.62.98.65 1.55h-1.51c-.07-.28-.17-.53-.36-.74-.77-.85-2.34-.54-2.84.48-.6 1.21-.29 2.82.27 3.39.86.9 2.44.67 2.9-.2.09-.2.17-.48.21-.8zm-10.56 1.15-.57 1.61h-1.6l2.75-7.27h1.64l2.72 7.27h-1.67l-.55-1.61h-2.72zm.42-1.19h1.88l-.92-2.67h-.02l-.94 2.67zm16.09-4.46h2.17v1.35h-2.17v5.91h-1.6v-5.91h-2.17v-1.35h3.77zm-6.91 12.85c-.55-1.18-2.3-1.24-3-.19-.58.86-.68 2.49.03 3.5.63.93 2.79 1.21 3.11-.81.01-.04.01-.08.02-.12h1.55c-.02.24-.06.46-.11.67-.75 3.01-4.46 2.7-5.71 1.22-1.27-1.48-1.31-4.01.02-5.46 1.27-1.49 4.41-1.61 5.52.61.19.4.23.81.23.92h-1.55c-.04-.12-.06-.24-.11-.34zm14.8 2.42h-1.61v-1.19h3.06v3.93h-1.02l-.16-.84c-.94 1.4-3.38 1.32-4.63-.07-1.26-1.48-1.33-3.93.05-5.47 1.21-1.32 3.68-1.53 4.99-.04.38.43.62.98.65 1.55h-1.51c-.07-.28-.17-.53-.36-.74-.77-.85-2.34-.54-2.84.48-.6 1.21-.29 2.82.27 3.39.86.9 2.44.67 2.9-.2.09-.2.16-.48.21-.8zm-10.57 1.13-.57 1.61h-1.6l2.75-7.27h1.64l2.72 7.27h-1.67l-.55-1.61h-2.72zm.42-1.19h1.88l-.92-2.67h-.02l-.94 2.67zm-12.4-4.47h2.17v1.35h-2.17v5.91h-1.6v-5.91h-2.17v-1.35h3.77zm-139.75-19.69V229c11.34 10.65 26.45-10.64 37.79-5.32v-41.29c0-.71-.58-1.29-1.29-1.29h-35.21c-.71 0-1.29.58-1.29 1.29zm25.9 6.57-5.62-3.24a.58.58 0 0 1-.21-.78c.16-.27.5-.36.78-.21l5.62 3.24c.27.16.36.5.21.78-.16.27-.51.36-.78.21zm6.98 4.03-5.62-3.24a.58.58 0 0 1-.21-.78c.16-.27.5-.36.78-.21l5.62 3.24c.27.15.37.5.22.77s-.5.37-.77.22h-.02zm-15.66 27.77-5.89-3.4a.58.58 0 0 1-.21-.78c.16-.27.5-.36.78-.21l5.89 3.4c.27.16.36.5.21.78-.16.27-.51.37-.78.21zm2.08-19.91c1.57.37 3.05.77 4.42 1.01l-2.59-1.5a.58.58 0 0 1-.21-.78c.16-.27.5-.36.78-.21l4.62 2.67c.4-.03.78-.09 1.14-.19-.08-.29-.18-.57-.3-.85l-4.79-2.76a.58.58 0 0 1-.21-.78c.16-.27.5-.36.78-.21l2.9 1.67c-.58-.72-1.25-1.45-1.97-2.2-1.09-.25-2.15-.52-3.16-.76l.85.49c.27.16.36.5.21.78a.58.58 0 0 1-.78.21l-3.6-2.08c-.86-.07-1.66-.05-2.39.14l5.34 3.08c.27.16.36.5.21.78a.58.58 0 0 1-.78.21l-4.12-2.38c.56.93 1.35 1.86 2.24 2.82l1.29.75c.04.02.09.06.12.09zm5.02-8c.1.1.19.2.29.3.17-.24.49-.3.74-.16l2.74 1.58c.99.15 1.92.21 2.77.08l-4.83-2.79a.58.58 0 0 1-.21-.78c.16-.27.5-.36.78-.21l5.61 3.24.12.09c.52-.26.99-.62 1.42-1.12l-2.42 4.19c-1.07.16-2.13.18-3.17.12.61.91 1.15 1.89 1.57 2.94l-.08.15c.02-.02.03-.04.05-.06l-2.36 4.09-.05.09c-1.81.27-3.59.15-5.31-.12 1.05 1.31 1.99 2.75 2.63 4.38l-.08.15c.02-.02.03-.04.05-.06l-2.36 4.09-.05.09c-1.07.16-2.13.18-3.17.12.61.91 1.15 1.89 1.57 2.94l-2.4 4.18c.23-.66.31-1.28.26-1.89a.615.615 0 0 1-.33-.07l-5.54-3.2c-.27-.16-.36-.5-.21-.78s.5-.36.78-.21l4.97 2.87c-.32-.8-.83-1.58-1.47-2.37l-2.9-1.67a.566.566 0 0 1-.22-.75c-.11-.03-.22-.05-.32-.08-.18.19-.47.24-.7.11l-.83-.48c-1.35-.32-2.61-.59-3.76-.65l3.88 2.24c.27.16.36.5.21.78s-.5.36-.78.21l-5.32-3.07c-.57.14-1.1.37-1.58.73.12-.01.23.01.34.07l5.89 3.4c.27.15.37.5.22.77s-.5.37-.77.22c0 0-.01 0-.01-.01l-5.89-3.4a.571.571 0 0 1-.27-.63c-.1.1-.2.2-.29.31l2.42-4.17c1.8-.27 3.58-.16 5.29.12-1.05-1.31-1.99-2.76-2.64-4.4l.05-.09 2.36-4.09c-.01.02-.02.05-.03.07l.08-.15c1.06-.16 2.11-.18 3.15-.12a14.95 14.95 0 0 1-1.58-2.96l.05-.09 2.36-4.09c-.01.02-.02.05-.03.07l.08-.15c1.8-.27 3.58-.16 5.29.12-1.05-1.31-1.99-2.76-2.64-4.4l2.42-4.19c-.35.98-.34 1.9-.09 2.78l5.17 2.99c.27.16.36.5.21.78a.58.58 0 0 1-.78.21l-3.74-2.16c.62.96 1.48 1.92 2.42 2.92l.69.4c.22.14.33.39.28.63zm-6.92 11.02c-.01 0-.01-.01-.02-.01l-1.12-.65c-1.28-.3-2.48-.52-3.58-.55l3.99 2.3c.27.16.36.5.21.78a.58.58 0 0 1-.78.21l-5.04-2.91a.546.546 0 0 1-.19-.18h-.01c.2.75.58 1.48 1.09 2.21l3.48 2.01c.27.16.36.5.21.78s-.5.36-.78.21l-.75-.43c.68.72 1.42 1.47 2.14 2.26.96.23 1.88.44 2.75.57l-2.78-1.61a.58.58 0 0 1-.21-.78c.16-.27.5-.36.78-.21l4.66 2.69c.3-.03.6-.09.88-.16-.1-.37-.24-.73-.41-1.08l-4.49-2.59a.58.58 0 0 1-.21-.78c.16-.27.5-.36.78-.21l2.45 1.41c-.88-1.05-1.95-2.12-3.05-3.28zm-82.85-20.79v46.61c11.34 10.64 26.45-10.65 37.79-5.32v-41.29c0-.71-.58-1.29-1.29-1.29h-35.21c-.72 0-1.29.57-1.29 1.29zm8.22 7.35a.146.146 0 0 1 .05-.2h.01l1.58-.79c.06-.03.14-.01.18.05.04.06.01.14-.05.18l-.83.48a.52.52 0 0 0-.19.71l.49.84c.06.11.02.24-.08.3-.11.06-.24.02-.3-.08l-.78-1.35-.08-.14zm12.86-1.72c0-.08.07-.15.15-.15h.01l1.77.11c.07 0 .13.06.13.14 0 .07-.06.13-.13.13h-.96c-.29 0-.52.23-.52.52v.97c0 .12-.1.22-.22.22s-.22-.1-.22-.22v-1.56l-.01-.16zm12.35 3.61c.04-.07.13-.1.2-.05h.01l1.48.98c.06.04.08.12.04.18s-.11.08-.18.05l-.83-.48a.52.52 0 0 0-.71.19l-.49.84c-.06.11-.2.14-.3.08a.217.217 0 0 1-.08-.3l.78-1.35.08-.14zm-13.6 22.72v.06c0 .11-.03.21-.09.29l-.4 4.67h-.15l-.4-4.67a.521.521 0 0 1-.09-.29v-.01l-2.45 3.51-.13-.07 1.99-4.25c-.01-.1.02-.21.07-.3l.45-.78-3.86-6.68-.01.01c-.14.08-.3.09-.45.04l-.32-.12a.485.485 0 0 1-.26-.23l-.31-.54a.536.536 0 0 1-.53-.25l-6.83-11.83-.04-.07c-.17-.28-.43-.55-.69-.65-.69-.26-1.69.05-1.97.92-.11.36-.06.74.04 1.08l-.1.07c-.29-.47-.47-1.14-.24-1.74.25-.61.61-1.02 1.7-1.23 0 0 .26-.04.48-.14.06-.03.17-.08.28-.14.01 0 .01-.01.02-.01l.49-.28-.87-1.51c-.01-.02-.02-.03-.03-.05l-.13.07a.24.24 0 0 1-.32-.08l-.18-.31a.24.24 0 0 1 .08-.32l1.23-.71a.24.24 0 0 1 .32.08l.18.31c.06.11.03.25-.08.32l-.13.07c.01.02.02.03.03.05l.87 1.51.48-.28a.52.52 0 0 1 .71.19l.72 1.25c.11.2.37.26.56.15.2-.11.45-.05.56.15l6.45 11.17c.11.2.05.45-.15.56l-.36.21-.28.16.24.41c.09.15.09.35.01.5l-.28.52 3.02 5.24v-5.14h-.01c-.16 0-.3-.07-.4-.19l-.22-.27a.555.555 0 0 1-.12-.33v-.63a.522.522 0 0 1-.33-.49v-13.75c-.01-.32-.1-.69-.28-.91-.47-.57-1.48-.8-2.16-.19-.28.25-.42.61-.5.96l-.12.01c-.02-.55.16-1.23.66-1.62.52-.4 1.04-.58 2.09-.21 0 0 .25.09.49.12.07.01.19.01.32.02h.59v-1.81h-.15c-.13 0-.23-.1-.23-.23v-.36c0-.13.1-.23.23-.23h1.42c.13 0 .23.1.23.23v.36c0 .13-.1.23-.23.23h-.15v1.81h.55c.29 0 .52.23.52.52v1.44c0 .23.18.41.41.41.23 0 .41.18.41.41v12.9c0 .23-.18.41-.41.41h-.74v.48c0 .18-.09.35-.24.44l-.5.31v5.34l2.93-5.07-.01-.01a.488.488 0 0 1-.25-.37l-.05-.34c-.02-.12 0-.24.06-.34l.31-.54a.53.53 0 0 1-.05-.59l6.83-11.83.04-.07c.15-.28.26-.65.22-.93-.13-.73-.88-1.44-1.78-1.24-.37.08-.67.32-.91.58l-.11-.05c.26-.48.75-.98 1.38-1.07.65-.09 1.19.02 1.91.86 0 0 .17.2.36.35.06.04.16.1.27.17.01 0 .01.01.02.01l.49.28.87-1.51c.01-.02.02-.03.03-.05l-.13-.07c-.11-.06-.15-.2-.08-.32l.18-.31c.06-.11.2-.15.32-.08l1.23.71c.11.06.15.2.08.32l-.18.31c-.06.11-.2.15-.32.08l-.13-.07c-.01.02-.02.04-.03.05l-.87 1.51.48.28c.25.14.33.46.19.71l-.72 1.25c-.11.2-.05.45.15.56.2.11.26.37.15.56l-6.45 11.17a.41.41 0 0 1-.56.15l-.36-.21-.28-.16-.24.41c-.09.15-.25.25-.43.26l-.59.02-3.88 6.72.4.7c.05.09.08.19.07.3l1.99 4.25-.13.07-2.4-3.48z" class="st9"/>
  <path fill="#8dc63f" d="M275.1 128.91c.06.34.21.65.44.91l3.26 3.75c.12.14.25.25.4.35l-.06.06c-.3.26-.33.72-.07 1.02l.35.4c.26.3.72.33 1.02.07l.56-.49v5.84c0 .4.32.72.72.72h1.98c.4 0 .72-.32.72-.72v-4.04l1.7 3.65c.17.36.6.52.96.35l1.8-.84c.36-.17.52-.6.35-.96l-2.15-4.61 3.35 1.49c.36.16.79 0 .95-.37l.81-1.81c.16-.36 0-.79-.37-.95l-5.45-2.43 1.13-.98c4.96 1.35 8.61 5.89 8.61 11.29v1.93c0 2.01-.51 3.9-1.4 5.56h-5.18v-1.5c0-.08-.01-.16-.04-.23h2.93c.2 0 .36-.16.36-.36v-1.19c0-.2-.16-.36-.36-.36h-21.38c-.2 0-.36.16-.36.36v1.19c0 .2.16.36.36.36h8.86v.63h-.93c-.2 0-.36.16-.36.36v.99c0 .2.16.36.36.36h5.68v1.31c0 .4.32.72.72.72h1.51v3.22l-.47.09c.01-.04.02-.08.02-.13v-.99c0-.2-.16-.36-.36-.36h-6.75c-.2 0-.36.16-.36.36v.99c0 .08.03.16.07.22l-.93-.01c-3.81 0-4.75 4.63-4.75 7.01v2c0 .6.49 1.08 1.08 1.08h41.4c.33-2.49.5-5.01.5-7.53v-.08c-.01-10.68-3-21.36-8.99-29.51-5.89-8.02-13.57-12.1-21.29-12.24a.376.376 0 0 0-.35-.26h-.97v-2.79c0-.08-.02-.15-.07-.21h1c.4 0 .72-.32.72-.72v-2.67c0-.4-.32-.72-.72-.72h-7.36c-.4 0-.72.32-.72.72v2.67c0 .4.32.72.72.72h2.39c-.04.06-.07.13-.07.21v2.79h-.38c-.2 0-.36.16-.36.36v.67l-.7 1.09-.99-.64c-.05-.05-.11-.09-.16-.13l-7.88-5.12c-.5-.33-1.17-.18-1.5.32l-2.29 3.53-4.02-2.61a.73.73 0 0 0-.27-.9l-1.66-1.08a.73.73 0 0 0-.93.12l-.15-.1a.726.726 0 0 0-1 .21l-1.87 2.88c-.22.33-.12.78.21 1l.16.1c-.13.32-.01.69.28.88l1.66 1.08c.29.19.67.14.91-.1l4.02 2.61-.18.28c-.33.5-.18 1.17.32 1.5l5.12 3.32c.18.11.38.17.59.17h3.93c.37 0 .71-.19.91-.49l.84-1.3.26.17-1.96 3.03c-.11.18-.17.38-.17.59v1.77c0 .6.49 1.08 1.08 1.08l.66.02zm127.16-14.7h-11.41c-1.04 0-1.88.84-1.88 1.88v11.65c0 .01-.01.01-.01.01-.01 0-.02.01-.02.01l-10.06 33.47c-.05.18-.08.36-.08.54v1.09c0 .76.61 1.37 1.37 1.37h32.78c.76 0 1.37-.61 1.37-1.37v-1.09c0-.18-.03-.36-.08-.54l-10.06-33.47c0-.01-.01-.01-.02-.01s-.01-.01-.01-.01v-11.65a1.893 1.893 0 0 0-1.89-1.88zm243.23 204.68c-10.9-10.9-28.57-10.9-39.47 0-10.9 10.9-10.9 28.57 0 39.47 10.9 10.9 28.57 10.9 39.47 0 10.9-10.89 10.9-28.56 0-39.47m-8.64 8.65c6.13 6.13 6.13 16.06 0 22.19-6.13 6.13-16.06 6.13-22.19 0-6.13-6.13-6.13-16.06 0-22.19 6.13-6.13 16.07-6.13 22.19 0"/>
  <path fill="none" stroke="#84be41" stroke-linecap="round" stroke-linejoin="round" stroke-width="3" d="M645.49 318.89c-10.9-10.9-28.57-10.9-39.47 0-10.9 10.9-10.9 28.57 0 39.47 10.9 10.9 28.57 10.9 39.47 0 10.9-10.89 10.9-28.56 0-39.47m-8.64 8.65c6.13 6.13 6.13 16.06 0 22.19-6.13 6.13-16.06 6.13-22.19 0-6.13-6.13-6.13-16.06 0-22.19 6.13-6.13 16.07-6.13 22.19 0"/>
  <use xlink:href="#a" class="st13"/>
  <use xlink:href="#a" class="st14"/>
  <text class="st15 st16 st17" transform="rotate(14.999 -972.741 2442.553)">PUBLISHED</text>
  <path d="M426.92 158.86h40.85c.14 0 .25.11.25.25v4.88c0 .14-.11.25-.25.25h-40.85c-.14 0-.25-.11-.25-.25v-4.88c0-.14.11-.25.25-.25z" class="st15"/>
  <path d="M426.03 156.79h42.64c.14 0 .25.11.25.25v5.22c0 .14-.11.25-.25.25h-42.64c-.14 0-.25-.11-.25-.25v-5.22c0-.14.11-.25.25-.25zm.89-8.57h40.85c.14 0 .25.11.25.25v4.88c0 .14-.11.25-.25.25h-40.85c-.14 0-.25-.11-.25-.25v-4.88c0-.14.11-.25.25-.25z" class="st15"/>
  <path d="M426.03 146.15h42.64c.14 0 .25.11.25.25v5.22c0 .14-.11.25-.25.25h-42.64c-.14 0-.25-.11-.25-.25v-5.22c0-.14.11-.25.25-.25zm.89-8.58h40.85c.14 0 .25.11.25.25v4.88c0 .14-.11.25-.25.25h-40.85c-.14 0-.25-.11-.25-.25v-4.88c0-.14.11-.25.25-.25z" class="st15"/>
  <path d="M426.03 135.5h42.64c.14 0 .25.11.25.25v5.22c0 .14-.11.25-.25.25h-42.64c-.14 0-.25-.11-.25-.25v-5.22c0-.14.11-.25.25-.25zm.89-8.57h40.85c.14 0 .25.11.25.25v4.88c0 .14-.11.25-.25.25h-40.85c-.14 0-.25-.11-.25-.25v-4.88c0-.14.11-.25.25-.25z" class="st15"/>
  <path d="M426.03 124.86h42.64c.14 0 .25.11.25.25v5.22c0 .14-.11.25-.25.25h-42.64c-.14 0-.25-.11-.25-.25v-5.22c0-.14.11-.25.25-.25zm.89-8.58h40.85c.14 0 .25.11.25.25v4.88c0 .14-.11.25-.25.25h-40.85c-.14 0-.25-.11-.25-.25v-4.88c0-.14.11-.25.25-.25z" class="st15"/>
  <path d="M426.03 114.21h42.64c.14 0 .25.11.25.25v5.22c0 .14-.11.25-.25.25h-42.64c-.14 0-.25-.11-.25-.25v-5.22c0-.14.11-.25.25-.25zm295.72 204.68c-10.9-10.9-28.57-10.9-39.47 0-10.9 10.9-10.9 28.57 0 39.47 10.9 10.9 28.57 10.9 39.47 0 10.9-10.89 10.9-28.56 0-39.47m-8.64 8.65c6.13 6.13 6.13 16.06 0 22.19-6.13 6.13-16.06 6.13-22.19 0-6.13-6.13-6.13-16.06 0-22.19 6.13-6.13 16.06-6.13 22.19 0" class="st15"/>
  <path fill="#8dc63f" stroke="#84be41" stroke-linecap="round" stroke-linejoin="round" stroke-width="3" d="M721.75 318.89c-10.9-10.9-28.57-10.9-39.47 0-10.9 10.9-10.9 28.57 0 39.47 10.9 10.9 28.57 10.9 39.47 0 10.9-10.89 10.9-28.56 0-39.47m-8.64 8.65c6.13 6.13 6.13 16.06 0 22.19-6.13 6.13-16.06 6.13-22.19 0-6.13-6.13-6.13-16.06 0-22.19 6.13-6.13 16.06-6.13 22.19 0"/>
  <use xlink:href="#b" class="st13"/>
  <use xlink:href="#b" class="st14"/>
  <text class="st15 st16 st17" transform="rotate(14.999 -934.611 2732.195)">PUBLISHED</text>
  <path d="m694.23 313.66 1.13 3.36h3.65l-2.96 2.08 1.13 3.36-2.96-2.08-2.96 2.08 1.13-3.36-2.96-2.08h3.65l1.15-3.36zm14-.44 1.13 3.36h3.65l-2.96 2.08 1.13 3.36-2.96-2.08-2.96 2.08 1.13-3.36-2.96-2.08h3.65l1.15-3.36zm12.08 7.95 1.13 3.36h3.65l-2.96 2.08 1.13 3.36-2.96-2.08-2.96 2.08 1.13-3.36-2.96-2.08h3.65l1.15-3.36zm-10.17 33.15 1.13 3.36h3.65l-2.96 2.08 1.13 3.36-2.96-2.08-2.96 2.08 1.13-3.36-2.96-2.08h3.65l1.15-3.36zm-13.44.44 1.13 3.36h3.65l-2.96 2.08 1.13 3.36-2.96-2.08-2.96 2.08 1.13-3.36-2.96-2.08h3.65l1.15-3.36zm-10.87-7.24 1.13 3.36h3.65l-2.96 2.08 1.13 3.36-2.96-2.08-2.96 2.08 1.13-3.36-2.96-2.08h3.65l1.15-3.36z" class="st13"/>
  <path d="M198.01 136.55c1-3.51 2.89-6.83 5.65-9.59 8.68-8.68 22.75-8.68 31.43 0 2.77 2.77 4.65 6.08 5.65 9.59 1.43 2.84 2.49 5.89 3.19 9.06.15.47.3.94.43 1.41l-6.26-26.65c-.38-1.63-1.53-2.74-2.83-2.74h-31.75c-1.3 0-2.44 1.11-2.83 2.74l-6.33 26.91c.09-.32.18-.64.28-.96.72-3.41 1.83-6.72 3.37-9.77z" class="st15"/>
  <path d="m237.86 127.45 2.12 6.87c2.99 7.87 1.31 17.11-5.03 23.45-4.31 4.31-9.96 6.46-15.61 6.46h22.07c1.93 0 3.49-1.56 3.49-3.49V127c0-1.93-1.56-3.49-3.49-3.49h-.64c-1.68 0-3.05 1.37-3.05 3.05.01.3.05.6.14.89zm-40.55-3.95h-16.45c-1.93 0-3.49 1.56-3.49 3.49v33.75c0 1.93 1.56 3.49 3.49 3.49h38.49c-5.65 0-11.3-2.15-15.61-6.46-6.3-6.3-7.99-15.45-5.09-23.29l1.99-6.46c.57-1.84-.46-3.8-2.31-4.37a3.81 3.81 0 0 0-1.02-.15z" class="st15"/>
  <path d="M232.61 128.96c7.38 7.38 7.38 19.34 0 26.72-7.38 7.38-19.34 7.38-26.72 0-7.38-7.38-7.38-19.34 0-26.72 7.38-7.38 19.34-7.38 26.72 0m-122.95-6.9v32.35c7.87 7.39 18.36-7.39 26.23-3.69v-34.41c-7.87-7.39-18.36 7.39-26.23 3.69v2.06zm56.24 0v32.35c-7.87 7.39-18.36-7.39-26.23-3.69v-34.41c7.87-7.39 18.36 7.39 26.23 3.69v2.06z" class="st15"/>
  <path d="M139.67 155.51v2.94c7.87-3.69 18.36 11.08 26.23 3.69v-3.99c-7.87 7.39-18.36-7.39-26.23-3.69v1.05z" class="st15"/>
  <path d="M134.52 154.5h6.51c.58 0 1.06.47 1.06 1.06v2.68c0 .58-.47 1.06-1.06 1.06h-6.51c-.58 0-1.06-.47-1.06-1.06v-2.68c.01-.59.48-1.06 1.06-1.06z" class="st15"/>
  <path d="M135.89 155.51v2.94c-7.87-3.69-18.36 11.08-26.23 3.69v-3.99c7.87 7.39 18.36-7.39 26.23-3.69v1.05zm-51.77-40.7H61.07c-.37 0-.66.3-.66.66v48.1c0 .37.3.66.66.66h36.47c.37 0 .66-.3.66-.66v-34.68c0-.37-.3-.66-.66-.66h-12.1a.66.66 0 0 1-.66-.66v-12.09c0-.37-.3-.67-.66-.67z" class="st15"/>
  <path d="m87.76 114.81 10.44 10.44H87.76v-10.44zm460.92 211.55h13.19v4.29c0 1.06.86 1.93 1.93 1.93h16.18a1.931 1.931 0 0 0 0-3.86h-14.25v-8.36h14.25a1.931 1.931 0 0 0 0-3.86H563.8c-1.06 0-1.93.86-1.93 1.93v4.07h-14.62c-.1 0-.21.01-.31.03-.06-.01-.12-.01-.18-.01-1.06 0-1.93.86-1.93 1.93v13.61h-14.26a1.931 1.931 0 0 0 0 3.86h14.26v4.42c0 1.06.86 1.93 1.93 1.93.08 0 .17-.01.25-.02.08.01.16.02.25.02h14.55v16.17c0 .26.05.51.15.74.24.79.97 1.37 1.85 1.37h16.18a1.931 1.931 0 0 0 0-3.86h-14.32v-8.34h14.32a1.931 1.931 0 0 0 0-3.86h-14.32v-8.34h14.32a1.931 1.931 0 0 0 0-3.86h-16.24c-1.06 0-1.93.86-1.93 1.93v4.17H548.7l-.02-18.03zm56.29-201.11c-.57 0-1.03.46-1.03 1.03v25.27c0 .57.46 1.03 1.03 1.03h39.61c.57 0 1.03-.46 1.03-1.03v-25.27c0-.57-.46-1.03-1.03-1.03h-39.61zm8.07 3.53h23.47c1.25 0 2.27 1.02 2.27 2.27v15.74c0 1.25-1.02 2.27-2.27 2.27h-23.47c-1.25 0-2.27-1.02-2.27-2.27v-15.74c0-1.26 1.02-2.27 2.27-2.27zm12.71-5.03h19.04c.46 0 .83-.26.83-.57v-5.92c-.68-.26-1.43-.52-2.24-.76-2-.6-4.25-1.08-6.64-1.44-3.45.52-7.21.81-10.99.85m0 0c-.32 0-.63.01-.95.01h-.05c-.32 0-.63 0-.95-.01-3.78-.04-7.54-.32-10.99-.85-2.39.36-4.64.84-6.64 1.44-.81.24-1.55.49-2.24.76v5.92c0 .31.37.57.83.57h20.98m-.99 40.49h.05c6.72 0 13.44-.82 18.57-2.44a31.7 31.7 0 0 0 2.24-.81v-6.25c0-.37-.3-.66-.66-.66H604.6c-.37 0-.66.3-.66.66v6.25c.68.28 1.43.55 2.24.81 5.13 1.62 11.85 2.44 18.57 2.44zm-7.33-1.94c-.24 0-.47-.1-.6-.27l-4.17-5.08c-.23-.28-.14-.65.19-.84a.81.81 0 0 1 .41-.11h23.05c.4 0 .73.27.73.61 0 .12-.04.24-.13.34l-4.17 5.08c-.14.17-.36.27-.6.27h-14.71zm-4.01-32.13c-.74 0-1.34.6-1.34 1.34v14.82c0 .74.6 1.34 1.34 1.34h22.74c.74 0 1.34-.6 1.34-1.34v-14.82c0-.74-.6-1.34-1.34-1.34h-22.74zm2.25 1.92a1.201 1.201 0 1 1-1.7 1.7 1.201 1.201 0 1 1 1.7-1.7m3.98 0a1.201 1.201 0 1 1-1.7 1.7 1.201 1.201 0 1 1 1.7-1.7m3.99 0a1.201 1.201 0 1 1-1.7 1.7 1.201 1.201 0 1 1 1.7-1.7m3.99 0a1.201 1.201 0 1 1-1.7 1.7 1.201 1.201 0 1 1 1.7-1.7m3.99 0a1.201 1.201 0 1 1-1.7 1.7 1.201 1.201 0 1 1 1.7-1.7m3.98 0a1.201 1.201 0 1 1-1.7 1.7 1.201 1.201 0 1 1 1.7-1.7m-19.93 3.98a1.201 1.201 0 1 1-1.7 1.7 1.201 1.201 0 1 1 1.7-1.7m3.98 0a1.201 1.201 0 1 1-1.7 1.7 1.201 1.201 0 1 1 1.7-1.7m3.99 0a1.201 1.201 0 1 1-1.7 1.7 1.201 1.201 0 1 1 1.7-1.7m3.99 0a1.201 1.201 0 1 1-1.7 1.7 1.201 1.201 0 1 1 1.7-1.7m3.99 0a1.201 1.201 0 1 1-1.7 1.7 1.201 1.201 0 1 1 1.7-1.7m3.98 0a1.201 1.201 0 1 1-1.7 1.7 1.201 1.201 0 1 1 1.7-1.7m-19.93 3.99a1.201 1.201 0 1 1-1.7 1.7 1.201 1.201 0 1 1 1.7-1.7m3.98 0a1.201 1.201 0 1 1-1.7 1.7 1.201 1.201 0 1 1 1.7-1.7m3.99 0a1.201 1.201 0 1 1-1.7 1.7 1.201 1.201 0 1 1 1.7-1.7m3.99 0a1.201 1.201 0 1 1-1.7 1.7 1.201 1.201 0 1 1 1.7-1.7m3.99 0a1.201 1.201 0 1 1-1.7 1.7 1.201 1.201 0 1 1 1.7-1.7m3.98 0a1.201 1.201 0 1 1-1.7 1.7 1.201 1.201 0 1 1 1.7-1.7m-19.93 3.98a1.201 1.201 0 1 1-1.7 1.7 1.201 1.201 0 1 1 1.7-1.7m3.98 0a1.201 1.201 0 1 1-1.7 1.7 1.201 1.201 0 1 1 1.7-1.7m3.99 0a1.201 1.201 0 1 1-1.7 1.7 1.201 1.201 0 1 1 1.7-1.7m3.99 0a1.201 1.201 0 1 1-1.7 1.7 1.201 1.201 0 1 1 1.7-1.7m3.99 0a1.201 1.201 0 1 1-1.7 1.7 1.201 1.201 0 1 1 1.7-1.7m3.98 0a1.201 1.201 0 1 1-1.7 1.7 1.201 1.201 0 1 1 1.7-1.7m-276.96-18.11c1.78 7.14-2.57 14.37-9.71 16.16-7.14 1.78-14.37-2.57-16.16-9.71-1.78-7.14 2.57-14.37 9.71-16.16 7.15-1.77 14.38 2.57 16.16 9.71m-8.03 20.42 9.44 17.04c.44.8 1.45 1.09 2.25.65l4.19-2.32c.8-.44 1.09-1.45.65-2.25l-9.44-17.03c4.73-4.28 7.01-10.96 5.36-17.59-2.39-9.58-12.09-15.41-21.67-13.02-9.58 2.39-15.41 12.09-13.02 21.67s12.09 15.41 21.67 13.02c.19-.07.38-.12.57-.17zm230.74-8.65c3.05-8.6-10.78-14.03-15.38-25.65l3.87-6.71c-3.05 8.6 10.75 14.04 15.35 25.65l-3.84 6.71z" class="st15"/>
  <path d="M551.35 137.35c5.93-6.94 17.54 2.32 29.9.5l3.87-6.71c-5.93 6.94-17.54-2.29-29.89-.47l-3.88 6.68z" class="st15"/>
  <path d="M566.65 163.14c3.05-8.6-10.78-14.03-15.38-25.65l3.87-6.71c-3.05 8.6 10.75 14.04 15.35 25.65l-3.84 6.71zm-8.81-37.55c5.93-6.94 17.54 2.32 29.9.5l3.87-6.71c-5.93 6.94-17.54-2.29-29.89-.47l-3.88 6.68z" class="st15"/>
  <path d="M573.14 151.38c3.05-8.6-10.78-14.03-15.38-25.65l3.87-6.71c-3.05 8.6 10.75 14.04 15.35 25.65l-3.84 6.71z" class="st15"/>
  <path d="M543.15 151.03c5.93-6.94 17.54 2.32 29.9.5l3.87-6.71c-5.93 6.94-17.54-2.29-29.89-.47l-3.88 6.68zm24.21-17.79-5.14-2.97a.903.903 0 0 1-.33-1.24c.25-.44.81-.58 1.24-.33l5.14 2.97c.44.25.58.81.33 1.24-.25.43-.81.58-1.24.33zm7.1 4.1-5.14-2.97a.903.903 0 0 1-.33-1.24c.25-.44.81-.58 1.24-.33l5.14 2.97c.44.25.58.81.33 1.24a.91.91 0 0 1-1.24.33zm-5.25-7.57-9-5.2a.903.903 0 0 1-.33-1.24c.25-.44.81-.58 1.24-.33l9 5.2c.44.25.58.81.33 1.24-.25.44-.8.58-1.24.33zm11.19 6.47-9-5.2a.903.903 0 0 1-.33-1.24c.25-.44.81-.58 1.24-.33l9 5.2a.907.907 0 0 1-.91 1.57zm-9.24-9.88-9.5-5.48a.903.903 0 0 1-.33-1.24c.25-.44.81-.58 1.24-.33l9.5 5.48c.44.25.58.81.33 1.24a.91.91 0 0 1-1.24.33zm11.71 6.76-9.5-5.48a.903.903 0 0 1-.33-1.24c.25-.44.81-.58 1.24-.33l9.5 5.48c.44.25.58.81.33 1.24-.24.44-.8.58-1.24.33zm-9.58-10.07-4-2.31a.903.903 0 0 1-.33-1.24c.25-.44.81-.58 1.24-.33l4 2.31c.44.25.58.81.33 1.24-.25.43-.81.58-1.24.33zm5.89 3.4-4-2.31a.903.903 0 0 1-.33-1.24c.25-.44.81-.58 1.24-.33l4 2.31c.44.25.58.81.33 1.24-.25.44-.8.58-1.24.33zm-4.02-6.86-7.26-4.19a.903.903 0 0 1-.33-1.24c.25-.44.81-.58 1.24-.33l7.26 4.19c.44.25.58.81.33 1.24-.25.43-.81.58-1.24.33zm9.34 5.4-7.26-4.19a.903.903 0 0 1-.33-1.24c.25-.44.81-.58 1.24-.33l7.26 4.19c.44.25.58.81.33 1.24a.91.91 0 0 1-1.24.33zm-7.43-8.83-8.98-5.19a.903.903 0 0 1-.33-1.24c.25-.44.81-.58 1.24-.33l8.98 5.19c.44.25.58.81.33 1.24a.91.91 0 0 1-1.24.33zm11.17 6.45-8.98-5.19a.903.903 0 0 1-.33-1.24c.25-.44.81-.58 1.24-.33l8.98 5.19a.907.907 0 0 1-.91 1.57zm-9.2-9.86-9-5.2a.903.903 0 0 1-.33-1.24c.25-.44.81-.58 1.24-.33l9 5.2c.44.25.58.81.33 1.24-.25.44-.81.59-1.24.33zm11.19 6.47-9-5.2a.903.903 0 0 1-.33-1.24c.25-.44.81-.58 1.24-.33l9 5.2c.44.25.58.81.33 1.24-.25.43-.81.58-1.24.33zm-24.84 17.43-5.1-2.94a.903.903 0 0 1-.33-1.24c.25-.44.81-.58 1.24-.33l5.1 2.94c.44.25.58.81.33 1.24a.91.91 0 0 1-1.24.33zm7.06 4.07-5.1-2.94a.903.903 0 0 1-.33-1.24c.25-.44.81-.58 1.24-.33l5.1 2.94a.907.907 0 0 1-.91 1.57z" class="st15"/>
  <path d="m563.34 140-8.07-4.66a.903.903 0 0 1-.33-1.24c.25-.44.81-.58 1.24-.33l8.07 4.66c.44.25.58.81.33 1.24a.91.91 0 0 1-1.24.33zm10.21 5.89-8.07-4.66a.903.903 0 0 1-.33-1.24c.25-.44.81-.58 1.24-.33l8.07 4.66c.44.25.58.81.33 1.24-.25.43-.81.58-1.24.33zm-12.2-2.5-8.97-5.18a.903.903 0 0 1-.33-1.24c.25-.44.81-.58 1.24-.33l8.97 5.18c.44.25.58.81.33 1.24a.91.91 0 0 1-1.24.33zm11.15 6.44-8.97-5.18a.903.903 0 0 1-.33-1.24c.25-.44.81-.58 1.24-.33l8.97 5.18a.907.907 0 0 1-.91 1.57zm-12.93-2.93-2.53-1.46a.903.903 0 0 1-.33-1.24c.25-.44.81-.58 1.24-.33l2.53 1.46c.44.25.58.81.33 1.24a.91.91 0 0 1-1.24.33zm4.35 2.51-2.53-1.46a.903.903 0 0 1-.33-1.24c.25-.44.81-.58 1.24-.33l2.53 1.46c.44.25.58.81.33 1.24-.25.43-.81.58-1.24.33zm-6.41.84-5.72-3.31a.903.903 0 0 1-.33-1.24c.25-.44.81-.58 1.24-.33l5.72 3.31a.907.907 0 0 1-.91 1.57zm7.73 4.46-5.72-3.31a.903.903 0 0 1-.33-1.24c.25-.44.81-.58 1.24-.33l5.72 3.31c.44.25.58.81.33 1.24-.25.43-.81.58-1.24.33zm-9.78-1.11-8.89-5.13a.903.903 0 0 1-.33-1.24c.25-.44.81-.58 1.24-.33l8.89 5.13c.44.25.58.81.33 1.24-.25.43-.81.58-1.24.33zm11.07 6.39-8.89-5.13a.903.903 0 0 1-.33-1.24c.25-.44.81-.58 1.24-.33l8.89 5.13c.44.25.58.81.33 1.24-.25.43-.81.58-1.24.33zM553.48 157l-9.44-5.45a.903.903 0 0 1-.33-1.24c.25-.44.81-.58 1.24-.33l9.44 5.45c.44.25.58.81.33 1.24-.25.43-.81.58-1.24.33zm11.65 6.72-9.44-5.45a.903.903 0 0 1-.33-1.24c.25-.44.81-.58 1.24-.33l9.44 5.45c.44.25.58.81.33 1.24-.25.44-.8.59-1.24.33zm-74.51-43.41.11.2 1.13 1.95c.09.15.28.21.43.12.15-.09.21-.28.12-.43v-.01l-.7-1.22a.746.746 0 0 1 .27-1.02l1.2-.7c.09-.05.12-.17.07-.25-.05-.09-.17-.12-.26-.08l-2.29 1.14c-.11.05-.15.18-.1.29l.02.01zm16.41 35.03 3.88 5.55.18-.11-2.87-6.13c.01-.15-.02-.3-.1-.43l-6.73-11.66.4-.76c.12-.23.12-.5-.01-.73l-.34-.6.41-.23.52-.3a.6.6 0 0 0 .22-.81L493.28 123a.6.6 0 0 0-.81-.22c-.28.16-.65.07-.81-.22l-1.04-1.81a.742.742 0 0 0-1.02-.27l-.69.4-1.26-2.19a.304.304 0 0 0-.05-.07l.19-.11c.16-.09.21-.3.12-.46l-.26-.45a.339.339 0 0 0-.46-.12l-1.78 1.03c-.16.09-.21.3-.12.46l.26.45c.09.16.3.21.46.12l.19-.11a.3.3 0 0 0 .04.08l1.26 2.19-.7.41c-.01.01-.02.01-.03.02-.17.09-.31.17-.41.21-.32.14-.7.2-.7.2-1.58.3-2.1.9-2.46 1.77-.34.86-.07 1.83.34 2.51l.14-.1c-.15-.49-.23-1.05-.06-1.56.41-1.26 1.84-1.69 2.84-1.32.38.14.76.54 1 .94l.06.1 9.87 17.09c.16.27.46.41.77.37l.45.78c.09.15.22.26.38.32l.46.18c.21.08.45.06.64-.05l.01-.01 6.62 11.47c.06.14.17.24.31.31z" class="st15"/>
  <path d="M509.19 117.83v2.48c0 .18.14.32.31.32.18 0 .32-.14.32-.31v-1.42c0-.41.34-.75.75-.75h1.39c.1 0 .19-.08.19-.19 0-.1-.08-.19-.19-.2l-2.55-.15a.214.214 0 0 0-.23.2c.01.01.01.02.01.02zm-3.3 38.54.58 6.74h.21l.58-6.74c.08-.12.13-.27.13-.42v-13.46l.73-.45c.22-.14.35-.38.35-.64v-.69h1.06c.33 0 .6-.27.6-.6v-18.63c0-.33-.27-.6-.6-.6-.33 0-.6-.27-.6-.6v-2.09c0-.41-.34-.75-.75-.75h-.8v-2.61h.22c.18 0 .33-.15.33-.33v-.5c0-.18-.15-.33-.33-.33h-2.06c-.18 0-.33.15-.33.33v.53c0 .18.15.33.33.33h.22v2.61h-.85c-.19 0-.36-.01-.46-.02-.35-.04-.71-.17-.71-.17-1.51-.53-2.27-.27-3.02.31-.72.57-.98 1.55-.96 2.34l.17-.02c.11-.5.33-1.02.73-1.38.98-.89 2.44-.55 3.12.27.26.31.38.85.4 1.31v19.86c0 .31.19.59.48.7v.9c0 .17.06.34.17.47l.31.39c.14.18.36.28.58.28h.02v13.25c.02.14.06.29.15.41z" class="st15"/>
  <path d="m527.03 123.05-.11.2-1.13 1.95c-.09.15-.03.35.12.43.15.09.34.03.43-.12l.7-1.22c.21-.36.67-.48 1.02-.27l1.21.7c.09.05.2.02.25-.07.05-.09.03-.21-.06-.26l-2.13-1.41c-.1-.07-.23-.04-.3.06.01.01 0 .01 0 .01zm-22.13 31.73-2.87 6.13.18.11 3.88-5.55c.14-.07.25-.17.32-.3l6.73-11.66.86-.03a.75.75 0 0 0 .62-.37l.34-.6.41.23.52.3c.28.16.65.07.81-.22l9.31-16.13c.16-.28.07-.65-.22-.81a.6.6 0 0 1-.22-.81l1.04-1.81c.21-.36.08-.82-.27-1.02l-.69-.4 1.26-2.19c.01-.03.03-.05.04-.08l.19.11c.16.09.36.04.46-.12l.26-.45c.09-.16.04-.36-.12-.46l-1.78-1.03a.341.341 0 0 0-.46.12l-.26.45c-.09.16-.04.36.12.46l.19.11c-.02.02-.03.05-.05.07l-1.26 2.19-.7-.41c-.01-.01-.02-.01-.03-.02-.16-.1-.3-.19-.38-.25-.28-.21-.53-.5-.53-.5-1.04-1.22-1.83-1.37-2.76-1.24-.91.14-1.62.85-2 1.55l.16.07c.35-.37.79-.72 1.32-.83 1.29-.28 2.39.75 2.57 1.8.07.4-.09.93-.31 1.34l-.06.1-9.87 17.09c-.16.27-.13.61.07.85l-.45.78c-.09.15-.12.32-.09.49l.08.49c.04.22.17.42.37.53l.01.01-6.64 11.48c-.08.13-.11.28-.1.43zm11.3 176.47h-4.4c-.01.12-.03.23-.05.35-.91 5.73-7.03 4.95-8.83 2.31-2.02-2.86-1.73-7.49-.09-9.93 2-2.96 6.98-2.8 8.53.55.13.29.2.63.27.94h4.41c0-.29-.13-1.46-.66-2.6-3.14-6.32-12.05-5.97-15.66-1.74-3.76 4.09-3.66 11.29-.05 15.49 3.53 4.21 14.07 5.08 16.2-3.46.16-.59.27-1.24.33-1.91zm-43.75.11c-.12.9-.32 1.69-.61 2.25-1.3 2.46-5.78 3.13-8.22.56-1.58-1.62-2.49-6.18-.77-9.61 1.42-2.91 5.87-3.78 8.05-1.37.53.6.83 1.3 1.02 2.1h4.3c-.07-1.61-.75-3.16-1.84-4.39-3.73-4.24-10.72-3.64-14.17.1-3.93 4.36-3.72 11.31-.15 15.52 3.53 3.95 10.46 4.18 13.14.21l.46 2.38h2.9v-11.15h-8.68v3.39h4.57zm-29.97 3.26h7.71l1.57 4.58h4.73l-7.73-20.62h-4.65l-7.8 20.62h4.55l1.62-4.58zm1.2-3.38 2.68-7.58h.06l2.61 7.58h-5.35zm45.66-12.67h-10.73v3.83h6.17v16.78h4.56V322.4h6.17v-3.83h-6.17zm-14.88 39.51h-4.4c-.01.12-.03.23-.05.35-.91 5.73-7.03 4.95-8.83 2.31-2.02-2.86-1.73-7.49-.09-9.93 2-2.96 6.98-2.8 8.53.55.13.29.2.63.27.94h4.41c0-.29-.13-1.46-.66-2.6-3.14-6.32-12.05-5.97-15.66-1.74-3.76 4.09-3.66 11.29-.05 15.49 3.53 4.21 14.07 5.08 16.2-3.46.16-.6.26-1.24.33-1.91zm37.16.15c-.12.9-.32 1.69-.61 2.25-1.3 2.46-5.78 3.13-8.22.56-1.58-1.62-2.49-6.18-.77-9.61 1.42-2.91 5.87-3.78 8.05-1.37.53.6.83 1.3 1.02 2.1h4.3c-.07-1.61-.75-3.16-1.84-4.39-3.73-4.24-10.72-3.64-14.17.1-3.93 4.36-3.72 11.31-.15 15.52 3.53 3.95 10.46 4.18 13.14.21l.46 2.38h2.9v-11.15h-8.68v3.39h4.57zm-29.99 3.2h7.71l1.57 4.58h4.73l-7.73-20.62h-4.65l-7.8 20.62h4.55l1.62-4.58zm1.2-3.38 2.68-7.58h.06l2.61 7.58h-5.35zm-35.2-12.69H436.9v3.83h6.17v16.78h4.56v-16.78h6.17v-3.83h-6.17zM31.08 130.48h16.95c-.31-4.22-2.54-8.37-6.68-11.59-8.96-6.97-23.48-6.97-32.44 0-4.14 3.22-6.37 7.37-6.68 11.59h16.95c-.01 11.07-.11 22.14-.3 33.2h12.51c-.2-11.06-.3-22.13-.31-33.2z" class="st15"/>
  <path d="M15.93 145.36h9.35c-.17-2.33-1.4-4.62-3.69-6.4-4.95-3.85-12.96-3.85-17.91 0-2.29 1.78-3.52 4.07-3.69 6.4h9.35c-.01 6.13-.06 12.25-.16 18.33h6.91c-.1-6.09-.15-12.21-.16-18.33zm25.11 4.65h6.98c-.13-1.74-1.04-3.45-2.75-4.78-3.69-2.87-9.67-2.87-13.36 0-1.71 1.33-2.62 3.04-2.75 4.78h6.98c0 4.57-.05 9.14-.12 13.68h5.15c-.08-4.54-.12-9.11-.13-13.68z" class="st15"/>
  <path d="M226.44 64.29c-8.68-8.68-22.75-8.68-31.43 0s-8.68 22.75 0 31.43 22.75 8.68 31.43 0 8.68-22.75 0-31.43m-15.71 19.64-10.08 10.08-3.93-3.93L206.8 80l-10.08-10.08 3.93-3.93 10.08 10.08L220.81 66l3.93 3.93-10.08 10.08 10.08 10.08-3.93 3.93-10.08-10.09zm147.04-11.77-24.63 11.26c-.48.22-1.04.22-1.53 0l-24.63-11.26c-.92-.42-2.01-.02-2.43.91-.11.24-.17.5-.17.76V96.6c0 1.01.82 1.84 1.84 1.84h52.32c1.01 0 1.84-.82 1.84-1.84V73.83c0-1.01-.82-1.84-1.84-1.84-.27.01-.53.06-.77.17z" class="st9"/>
  <path d="M304.38 65.81v.03c0 .02.01.03.03.03h.03c.04 0 .08.01.12.03l27.05 12.37c.48.22 1.04.22 1.53 0l27.05-12.37c.04-.02.08-.03.12-.03.03 0 .06-.03.06-.06v-2.39c0-1.01-.82-1.84-1.84-1.84h-52.32c-1.01 0-1.84.82-1.84 1.84v2.39zm-6.25 10.16c0-9.67-13.42-17.5-29.99-17.5s-29.99 7.82-29.99 17.5c0 8.24 9.84 15.18 23.05 16.99-1.08 3.11-2.87 6.77-5.68 8.58 5.42 0 10.78-4.29 14.44-8.12 15.73-.54 28.17-8.16 28.17-17.45zm82.95-6.64c-4.78 2.27-8.09 7.14-8.09 12.79v18.37c0 1.18.96 2.14 2.14 2.14h30.37c1.18 0 2.14-.96 2.14-2.14V82.12c0-5.65-3.31-10.52-8.09-12.79 4.86-6.59 1.78-17.19-9.24-18.68-11.01 1.49-14.09 12.1-9.23 18.68z" class="st9"/>
  <path d="M372.99 81.25h34.66v22.29h-34.66V81.25z" class="st9"/>
  <path d="M376.58 92.34v7.74h27.48V80.34c0-3.8-2.74-6.96-6.35-7.62l-7.39 14.09-7.39-14.09c-3.61.66-6.35 3.82-6.35 7.62v12z" class="st13"/>
  <path d="M18.18 65.72h20.87c7.89 0 14.29 6.4 14.29 14.29 0 7.89-6.4 14.29-14.29 14.29H18.18c-7.89 0-14.29-6.4-14.29-14.29 0-7.89 6.4-14.29 14.29-14.29zm149.64-1.43c-8.68-8.68-22.75-8.68-31.43 0s-8.68 22.75 0 31.43 22.75 8.68 31.43 0 8.68-22.75 0-31.43m-4 4c6.47 6.47 6.47 16.96 0 23.43-6.47 6.47-16.96 6.47-23.43 0-6.47-6.47-6.47-16.96 0-23.43 6.47-6.47 16.96-6.47 23.43 0" class="st9"/>
  <path d="m135.64 67.09 35.89 20.72-2.95 5.11-35.89-20.72 2.95-5.11zm-40.53-.73c-6.31-6.31-16.55-6.31-22.86 0s-6.31 16.55 0 22.86c6.31 6.31 16.55 6.31 22.86 0 6.31-6.31 6.31-16.55 0-22.86m-2.91 2.9c4.71 4.71 4.71 12.34 0 17.05-4.71 4.71-12.34 4.71-17.05 0-4.71-4.71-4.71-12.34 0-17.05 4.71-4.7 12.35-4.7 17.05 0" class="st9"/>
  <path d="m98.08 81.87 16.19 9.35c.79.46 1.06 1.47.61 2.26l-2.01 3.48c-.46.79-1.47 1.06-2.26.61l-16.19-9.35a1.664 1.664 0 0 1-.61-2.26l2.01-3.48c.45-.8 1.47-1.07 2.26-.61zm331-12.7c-4.78 2.27-8.09 7.14-8.09 12.79v18.37c0 1.18.96 2.14 2.14 2.14h30.37c1.18 0 2.14-.96 2.14-2.14V81.96c0-5.65-3.31-10.52-8.09-12.79 4.86-6.59 1.78-17.19-9.24-18.68-11.01 1.49-14.09 12.09-9.23 18.68z" class="st9"/>
  <path d="M420.99 81.25h34.66v22.29h-34.66V81.25z" class="st9"/>
  <path d="M440.47 100.08v-5.75l-.01.05-11.83-12.83.01-.01.89-.96h-3.73l.11-.4 1.58-5.88a7.726 7.726 0 0 0-2.9 6.04v19.74h15.88zm-12.36-26.24-1.67 6.25h4.22l-.31.34-1.04 1.13 11.16 12.07v-2.65l-9.5-18.18-.04-.07c-1.01.18-1.96.56-2.82 1.11zm18.27 6.52-.31-.34h4.22l-1.63-6.09a7.7 7.7 0 0 0-2.95-1.2l-7.12 13.58 1.59 3.04 7.25-7.85-1.05-1.14zm1.71 1.13-7.67 8.33.54 1.04v9.23h11.09V80.34c0-2.38-1.07-4.5-2.76-5.92l1.53 5.7.11.4h-3.73l.89.97z" class="st13"/>
</svg>