<svg xmlns="http://www.w3.org/2000/svg" xml:space="preserve" viewBox="0 0 514.26 158.68">
  <path fill="#4D4D4D" d="M132.67 154.37c.1-.06.19-.13.29-.19 9.67-6.62 11.31-15.6 11.31-15.6 1.22-4.03 4.04-16.4 7.33-31.48-8.03 15.95-14.66 32.33-18.93 47.27zm23.86-70.16c5.97-27.99 11.75-56.02 11.75-56.02l-10.79.09c.16 1.3.29 2.82.42 4.61 1.15 16.57-.87 39.41-4.62 56.51 1.06-1.73 2.14-3.46 3.24-5.19z" class="st0"/>
  <path fill="#4D4D4D" d="m156.35 28.3-10.05.08-12.65 71.74-4.89-30.32c-.57.53-1.11 1.22-1.65 2.14-1.72 2.89-2.66 6.9-2.71 10.75 4.99 14.32 8.29 29.64 9.38 43.74 4.18-9.35 8.93-18.73 14.1-27.84.64-1.44 1.29-3.23 1.95-5.37 4.56-14.84 7.7-41.03 7.01-58.49-.11-2.54-.27-4.66-.49-6.43z" class="st0"/>
  <path fill="#4D4D4D" d="m128.61 68.88-6.56-40.68H99.02l3.32 13.64c1.61 1.8 3.31 4.02 5.25 6.79 6.06 8.66 11.33 19.23 15.54 30.55.58-2.94 1.68-5.74 3.25-7.98.81-1.14 1.47-1.84 2.23-2.32zm-6.76 89.17c.46-1.51.93-3.01 1.41-4.51l-.01-.03c.02-.05.05-.11.07-.16.63-1.93 1.28-3.86 1.96-5.77.51-2.04.91-4.32 1.21-6.83 3-25.36-6.31-64.96-20.8-88.45-.43-.7-.87-1.39-1.31-2.07l17.85 73.39s2.31 7.94-1.57 12.56-16.38 3.14-16.38 3.14l-.05 3.72c3.33 4.93 6.35 10.24 8.91 15.64m-4.26-.11c-1.44-3.19-3.01-6.32-4.72-9.38l-.11 8.97M91.49 34.61V0H63.8L53.29 54.64c3.02-1.64 3.82-5.24 2.65-8.07-.54-1.31-.78-2.56-.32-3.37l.84-.54c-.95.8-.66 2.25.01 3.73 1.45 3.2.59 6.99-2.42 8.91-.45.29-.75.46-1.01.6l-7.32 38.06-4.84-25.34c-5.44 12.61-7.85 31.21-5.39 43.06.26 1.25.56 2.37.91 3.38 4.31 7.32 8.94 14.53 13.77 21.44h3.84l5.18-29.19c-.06 0-.13 0-.19-.01-1.25-.05-2.17-1.05-2.29-2.28-.06-.57-.22-1.05-.65-1.13l.35.02c.28.16.43.59.49 1.08.14 1.09 1.06 2.06 2.3 1.98h.05l13.55-76.3-.7 83.93c1.28 1.63 2.37 3.35 3.18 5.01.97-5.51 2.64-7.84 6.38-11.1 1.39-1.12 1.7-1.53 2.31-2.27 2.93-3.53 2.02-8.35-.9-11.12-1.32-1.25-2.26-2.6-2.14-3.8l.71-1.07c-.7 1.44.4 2.99 1.96 4.38 3.38 3 4.35 7.91 1.82 11.73-1.17 1.77-1.18 1.53-3.17 3.55v-.01c-2.51 2.33-4.08 5.35-4.83 10.39 4.64.2 7.52 1.56 13.12 6.61.32.29.64.58.96.88v-90.5c-1.35-.66-2.74-1.15-4.19-1.51v.02c-4.17-1.22-4-.9-6.88-2.4-6.23-3.24-8.57-10.54-6.27-17.06 1.06-3.01 1.39-5.9-.62-7.32l1.74.91c1.05 1.5.79 4.01-.04 6.67-1.85 5.88.5 13 7.05 15.55 1.37.53 2.08.86 4.78 1.32 1.61.37 3.08.73 4.42 1.15z" class="st0"/>
  <path fill="#4D4D4D" d="m72.04 121.44-.13 15.06h2.59c-.26-4.47-.21-8.8.22-12.83.04-.38.08-.75.12-1.11-.05-.28-.11-.58-.2-.91-1.32-.06-1.72-.03-2.6-.21zM40.28 65.48l-1.75-9.15c-1.48 4.9-2 11.22-1.16 15.39a64.15 64.15 0 0 1 2.91-6.24z" class="st0"/>
  <path fill="#4D4D4D" d="M38.25 54.86 27.76 0H10.29c3.92 5.08 5.84 11.59 4.57 17.93-.92 4.57-1.11 4.04-3.45 9.63l-.01-.02c-4 8.47-4.02 18.54 1.61 36.67 1.96 6.3 4.45 12.9 7.38 19.64l-1-53.2 12 67.56c.58-8.06 2.34-16.57 5.06-24.08-.22-.79-.4-1.67-.5-2.57-.58-5.02.31-11.68 2.3-16.7z" class="st0"/>
  <path fill="#4D4D4D" d="M7.86 0H0v23.79c2.54 2.2 4.67 4.9 5.95 7.67.04.08.07.16.11.24.79-2.19 1.82-4.43 3.09-6.9v-.01c1.86-3.27 2.13-4.35 2.76-6.32 2.07-6.54.03-13.39-4.05-18.47zM0 26.05v32.82c3.04 2.17 5.86 4.47 8.36 6.84-.33-1.17-.64-2.34-.94-3.51-3.26-12.75-4.01-19.97-2.5-26.61-.04-.7-.19-1.47-.45-2.3-.77-2.45-2.4-5.01-4.47-7.24zm0 36.76v32.55c7.12 4.53 14.34 9.71 20.88 14.93l-.21-11.42c-3.6-7.93-6.75-15.83-9.34-23.54-.58-1.06-1.32-2.19-2.23-3.39-2.32-3.04-5.47-6.16-9.1-9.13zm0 34.36v25.16c1.17.19 1.92 1.13 1.78 2.57-.08.81-.13.75-.44 1.87-.55 1.74-.39 3.33.87 5.59.8 1.43 1.92 2.83 3.24 4.12l15.92-.08-.44-23.46C14.6 107.57 7.24 102.02 0 97.17zm37.03 32.81 1.16 6.52h2.84c-1.36-2.16-2.69-4.33-4-6.52z" class="st0"/>
  <path fill="#4D4D4D" d="M0 122.69v13.8l3.66-.02c-.99-1.23-1.83-2.53-2.45-3.87-1.18-2.54-1.13-3.66-.31-6.05.27-.71.3-.9.37-1.28.28-1.37-.32-2.29-1.27-2.58zm91.49 8.52c-.13-.14-.26-.28-.38-.42-.76.85-1.52 1.97-2.33 3.45-.39.71-.76 1.46-1.12 2.25h3.83v-5.28zm-14.13 5.29h8.88c.58-1.2 1.2-2.34 1.86-3.4.86-1.38 1.57-2.35 2.28-3.07-.17-.18-.34-.35-.51-.52-5.07-5.13-8.79-7.25-12.65-7.71-.11 1.04-.2 2.16-.26 3.37-.16 3.53-.01 7.35.4 11.33zm-5.31-16.37c.7.1 1.17.18 2.13.17-.5-1.25-1.23-2.59-2.1-3.91l-.03 3.74zm111.97 9.36c5.1 4.65 11.03 7.01 16.48 7.01 17.1 0 27.67-10.6 31.23-35.23 0 0 .14-1.18.32-3.17h-19.01c0 16.93-4.12 21.26-11.29 21.26-7.2.08-12.32-8.08-12.86-24.17 0 0-.39-7.02-.39-14.38 0-1.47.02-2.95.05-4.38-6.38 1.97-12.78 4.72-18.21 7.87.45 15 1.13 16.97 1.13 16.97.48 5.65 1.71 10.63 3.49 14.93.5-.33 1.02-.62 1.57-.86.97-.42 1.83-.92 2.43-1.51.11-2.14-.22-3.29-1-4.18-.48-.6-.49-.54-.76-1.05-.58-1.11-.17-2.41.83-3.12.46-.33.8-.72.66-1.13l.16.31c0 .33-.29.66-.69.97-.87.67-1.25 1.94-.56 2.98.14.22.22.34.56.68 1.01 1.08 1.37 1.79 1.43 3.65.16-.35.22-.74.16-1.15l.34 1.24c-.08.36-.25.69-.5 1.02-.06 2.53-.66 5.39-1.61 8.11 1.25 2.01 2.62 3.81 4.1 5.4 1.69.13 3.38.57 5.41 1.27 1.67.65 2.18.7 3.12.87 4.52.78 8.24-2.42 9.18-6.34.43-1.77 1.12-3.26 2.22-3.75l1.28.08c-1.6.12-2.39 1.84-2.81 3.89-.9 4.42-4.67 7.72-9.25 7.44-2.12-.13-1.91-.25-4.66-.97l.01-.01c-.84-.27-1.69-.45-2.56-.55zm29.36-64.53v.74h5.35l-.07-.05c-1.02-.76-2.33-1.03-4.81-.75l-.47.06z" class="st0"/>
  <path fill="#4D4D4D" d="M223 65.7h9.32c-.21-3.66-.41-6.12-.41-6.12-1.6-14.67-7.99-25.5-18.13-29.99-6.49 2.66-13.39 8.03-22.27 17.64-7.18 7.77-14.34 17.13-21.13 27.37-.05 1.8-.1 3.81-.13 6.04 5.7-2.86 12.05-5.23 18.37-6.84.14-4.48.36-7.89.36-7.89 1-14.34 6.64-21.46 13.06-21.46 6.88 0 11.05 6.54 11.32 19.83.29-.03.58-.05.87-.07 2.64-.16 3.48.13 4.83 1.22.14.13.25.21.35.28h3.22c.2-.15.39-.33.54-.53.34-.43.71-.76 1.08-.78l.35.15c-.46-.13-.89.26-1.26.76-.1.13-.22.26-.34.39zm-15.3-37.95a30.6 30.6 0 0 0-5.24-.45c-4.39 0-8.66.97-12.58 2.86-.3 4.81-.96 9.5-1.99 13.79.85-.87 1.71-1.72 2.57-2.57 7.2-7.02 12.32-11.17 17.24-13.63zm-21.01 4.22c-7.86 5.13-13.74 14.43-15.21 27.49 0 0-.26.89-.54 4.15 3.3-4.29 6.67-8.4 10.09-12.27.63-1.03 1.24-2.24 1.82-3.63 1.84-4.35 3.12-9.85 3.84-15.74zm-11.41 85c.63 1.45 1.32 2.81 2.06 4.1.78-2.14 1.33-4.34 1.54-6.32-.55.45-1.24.86-1.99 1.22-.58.28-1.12.61-1.61 1zm76.47 5.53c5.79 9.27 14.36 14 22.07 14 17.1 0 27.67-10.6 31.23-35.23 0 0 1.1-9.32 1.1-19.64s-.93-22.05-.93-22.05c-2.14-19.54-12.76-32.28-29.45-32.28-14.96 0-28.1 11.25-30.44 32.15 0 0-1.23 10.22-1.23 20.94 0 10.73 1.01 20.87 1.01 20.87.57 6.77 2.2 12.58 4.53 17.41 4.6-9.32 5.34-15.43 3.64-21.34l-.01.01c-1.03-4.23-1.22-3.91-1.37-7.16-.29-6.52 4.13-11.88 10.2-13.62.11-5.75.38-10.68.38-10.68 1-14.34 6.44-21.46 12.86-21.46 7.16 0 11.52 8.05 12.44 21.46 0 0 .4 8.74.4 15.81s-.47 13.47-.47 13.47c-1.12 17.64-5.87 24.17-13.21 24.17-5.27 0-11.57-8.08-12.11-24.17 0 0-.33-6.96-.33-14.32 0-1.02.01-2.04.02-3.04-5.19 1.94-9.13 7.1-8.17 13.36.22 1.45.3 2.23 1.24 4.8 2.84 8.79 2.74 13.36-2.86 25.36-.17.41-.36.8-.54 1.18z" class="st0"/>
  <path fill="#c5da49" d="M336.69 120.91V0h-20.1v136.5h52.91v-15.59h-32.81zM417.64 79c.01.74.01 1.07.01 1.81v22.93c0 3.95-6.74 13.08-13.22 14.43-16.59 1.87-13.25-15.29-12.49-17.16 1.91-4.64 3.98-8.32 22.43-20.04l3.27-1.97zm-29.66 4.71c-18.17 11.73-13.97 33.3-13.97 33.3 1.12 7.4 7.82 20.96 25.3 17.46 11.27-3.33 13.33-10.85 19.22-22.02l1.92 23.68h20.28c-4.54-14.84-5.37-19.7-5.37-19.7l-.89-57.14c0-21.8-15.81-31.98-30.77-31.98-16.69 0-27.31 12.74-29.45 32.28 0 0-.19 2.46-.41 6.12h18.94c0-10.77 2.85-22.62 12.03-22.42 8.27.18 12.36 8.66 12.36 22.63l.08 1.41c.01-.01-21.25 10.96-29.27 16.38zm78.89 39.79c1.78 2.87 3.01 4.84 3.01 4.84 7.63 8.84 15.45 8.13 20.05 8.16 8.32 0 23.15-9.24 23.49-32.33 0 0 .4-4.68.84-21.53 0-15-.25-17.93-.25-17.93-.22-17.9-4.04-37.97-23.06-37.41-9.58 0-20.36 7.47-24.09 24.57V0h-17.75v136.5h17.75l.01-13zm0-52.13c0-11.85 6.79-23.01 15.94-23.01 8.24 0 12.77 6.99 12.77 23.21 0 0 .3 6.95.3 13.84s-.21 13.57-.21 13.57c0 19.35-5.94 22.07-11.89 22.07-9.58 0-16.88-8.95-16.88-19.34h-.04V71.37z"/>
</svg>