<svg xmlns="http://www.w3.org/2000/svg" xml:space="preserve" viewBox="0 0 532.26 164.21">
  <path fill="#4C4C4C" d="M102.48 29.15h23.83l12 74.46 13.09-74.29h22.76c0-.15-20.84 100.8-24.86 114.09 0 0-1.7 9.29-11.71 16.15-10.01 6.86-29.92 4.12-29.93 4.12v-19.5c.25 0 13.19 1.53 17.21-3.25 4.02-4.78 1.62-13 1.62-13l-24.01-98.78zM0 0h28.72L47.3 97.27 65.99 0h28.65v141.27H74.41V31.71L55.89 141.27H39.51L20.06 31.71l2.05 109.47L0 141.3V0zm240.15 101.5h-19.67c0 17.52-4.27 21.99-11.68 21.99-7.45.08-12.75-8.36-13.31-25 0 0-.41-7.26-.41-14.87 0-7.61.5-15.42.5-15.42 1.04-14.84 6.87-22.2 13.51-22.2 7.37 0 11.73 7.25 11.73 21.99h19.59c-.22-3.78-.42-6.33-.42-6.33-2.21-20.22-13.2-33.39-30.47-33.39-15.47 0-29.62 11.64-32.04 33.26 0 0-1.02 3.56-1.28 22.3.46 18.62 1.26 20.95 1.26 20.95 2.04 24.06 17.34 36.44 30.04 36.44 17.69 0 28.62-10.96 32.31-36.44.01 0 .16-1.23.34-3.28zm45.27-73.26c-15.48 0-29.08 11.64-31.5 33.28 0 0-1.27 10.58-1.27 21.68s1.05 21.6 1.05 21.6c2.05 24.08 17 36.46 29.7 36.46 17.7 0 28.64-10.97 32.33-36.46 0 0 1.14-9.65 1.14-20.32s-.96-22.83-.96-22.83c-2.22-20.23-13.21-33.41-30.49-33.41zm-.43 17.74c7.41 0 11.93 8.34 12.88 22.21 0 0 .41 9.04.41 16.37 0 7.32-.49 13.94-.49 13.94-1.16 18.26-6.07 25.01-13.67 25.01-5.45 0-11.98-8.36-12.54-25.01 0 0-.34-7.2-.34-14.82s.44-15.49.44-15.49c1.04-14.84 6.67-22.21 13.31-22.21z" class="st0"/>
  <path fill="#C6E443" d="M348.47 125.16V0h-20.83v141.28h54.78v-16.12h-33.95zm83.82-43.42c.01.76.01 1.11.01 1.88v23.74c0 4.09-6.98 13.54-13.68 14.94-17.17 1.94-13.72-15.83-12.92-17.76 1.97-4.8 4.12-8.61 23.21-20.74l3.38-2.06zm-30.75 4.87c-18.8 12.14-14.46 34.46-14.46 34.46 1.15 7.65 8.09 21.69 26.18 18.07 11.66-3.45 13.8-11.22 19.89-22.79l1.98 24.5h20.99c-4.7-15.35-5.56-20.38-5.56-20.38l-.92-59.12c0-22.56-16.36-33.09-31.84-33.09-17.27 0-28.26 13.18-30.47 33.4 0 0-.2 2.55-.42 6.33h19.6c0-11.14 2.95-23.4 12.45-23.2 8.55.18 12.79 8.96 12.79 23.41l.08 1.46c.01-.01-21.99 11.34-30.29 16.95zm81.69 41.21c1.84 2.97 3.12 5.01 3.12 5.01 7.89 9.15 15.99 8.41 20.74 8.44 8.61 0 23.95-9.56 24.3-33.46 0 0 .42-4.84.87-22.28 0-15.52-.26-18.56-.26-18.56-.23-18.52-4.18-39.3-23.85-38.72-9.91 0-21.06 7.73-24.92 25.43V0h-18.35v141.28h18.34v-13.46zm0-53.95c0-12.26 7.02-23.82 16.48-23.82 8.52 0 13.21 7.24 13.21 24.02 0 0 .31 7.2.31 14.33s-.22 14.05-.22 14.05c0 20.03-6.14 22.84-12.29 22.84-9.9 0-17.45-9.26-17.45-20.02h-.04v-31.4z" class="st1"/>
</svg>