<svg id="Layer_1" data-name="Layer 1" xmlns="http://www.w3.org/2000/svg" viewBox="0 0 82.22 76.22"><defs><style>.cls-1{fill:#bcbec0;}.cls-2{fill:#8ec640;stroke:#000;stroke-width:0.25px;}</style></defs><path class="cls-1" d="M37.14,15H57.23v6.53a2.94,2.94,0,0,0,2.94,2.94H84.81a2.94,2.94,0,0,0,0-5.88H63.1V5.88H84.81a2.94,2.94,0,0,0,0-5.88H60.17a2.94,2.94,0,0,0-2.94,2.94v6.2h-23a2.94,2.94,0,0,0-2.94,2.94h0V32.84H9.56a2.94,2.94,0,0,0,0,5.87H31.27v6.74a2.94,2.94,0,0,0,2.94,2.94H57.13V73a2.93,2.93,0,0,0,.23,1.13,3,3,0,0,0,2.82,2.09H84.82a2.94,2.94,0,1,0,0-5.88H63V57.65H84.82a2.94,2.94,0,1,0,0-5.88H63V39.06H84.82a2.94,2.94,0,0,0,0-5.87H60.09a2.94,2.94,0,0,0-2.94,2.94v6.35h-20V15Z" transform="translate(-6.79 0)"/><path class="cls-2" d="M88.77,22.67H84.36a5.06,5.06,0,0,0-.27-.94c-1.55-3.35-6.53-3.51-8.53-.55a9.67,9.67,0,0,0,.09,9.93c1.8,2.64,7.92,3.42,8.83-2.31v-.35h4.4a10.32,10.32,0,0,1-.33,1.91C86.47,38.9,75.93,38,72.4,33.82s-3.71-11.4,0-15.49,12.52-4.58,15.66,1.74A7.62,7.62,0,0,1,88.77,22.67Z" transform="translate(-6.79 0)"/><path class="cls-2" d="M45.18,28.56a7,7,0,0,1-.61,2.25c-1.3,2.46-5.78,3.13-8.22.56-1.58-1.62-2.49-6.18-.77-9.61C37,18.85,41.45,18,43.63,20.39a4.71,4.71,0,0,1,1,2.1h4.3a7.14,7.14,0,0,0-1.82-4.39c-3.73-4.24-10.72-3.64-14.17.1a12.11,12.11,0,0,0-.15,15.52c3.53,4,10.46,4.18,13.14.21l.46,2.38h2.9V25.16H40.61v3.39h4.57Z" transform="translate(-6.79 0)"/><path class="cls-2" d="M15.21,31.82h7.71l1.57,4.58h4.73L21.49,15.78H16.84L9,36.4h4.55Zm1.2-3.38,2.68-7.58h.06l2.61,7.58Z" transform="translate(-6.79 0)"/><polygon class="cls-2" points="55.27 15.77 44.55 15.77 44.55 19.6 50.72 19.6 50.72 36.38 55.27 36.38 55.27 19.6 61.44 19.6 61.44 15.77 55.27 15.77 55.27 15.77"/><path class="cls-2" d="M47.19,55.28h-4.4v.35c-.91,5.73-7,4.95-8.83,2.31A9.66,9.66,0,0,1,33.82,48c2-3,7-2.8,8.53.55a5.06,5.06,0,0,1,.27.94H47a7.33,7.33,0,0,0-.66-2.6c-3.14-6.32-12-6-15.66-1.74-3.76,4.09-3.66,11.29-.05,15.49s14.05,5.09,16.2-3.45A12.51,12.51,0,0,0,47.19,55.28Z" transform="translate(-6.79 0)"/><path class="cls-2" d="M83.72,55.67a6.83,6.83,0,0,1-.64,2.25c-1.3,2.46-5.78,3.13-8.22.56-1.58-1.62-2.49-6.18-.77-9.61,1.42-2.91,5.87-3.78,8-1.37a4.65,4.65,0,0,1,1,2.1h4.3a7.1,7.1,0,0,0-1.74-4.36c-3.73-4.24-10.72-3.64-14.17.1a12.12,12.12,0,0,0-.15,15.52c3.53,4,10.46,4.18,13.14.21l.46,2.38h2.9V52.24H79.15v3.39h4.57Z" transform="translate(-6.79 0)"/><path class="cls-2" d="M54.36,58.63h7.71l1.57,4.58h4.73L60.64,42.59H56l-7.8,20.62h4.52Zm1.2-3.38,2.68-7.58h.06l2.61,7.58Z" transform="translate(-6.79 0)"/><polygon class="cls-2" points="13.57 42.56 2.84 42.56 2.84 46.39 9 46.39 9 63.17 13.57 63.17 13.57 46.39 19.73 46.39 19.73 42.56 13.57 42.56 13.57 42.56"/></svg>